<svg version="1.1" xmlns="http://www.w3.org/2000/svg" xmlns:xlink="http://www.w3.org/1999/xlink" x="0px" y="0px"
	 viewBox="0 0 16.9 21.5" style="enable-background:new 0 0 16.9 21.5;" xml:space="preserve">
<path d="M15.9,0H1C0.4,0,0,0.4,0,1v19.5c0,0.6,0.4,1,1,1h11.6l4.3-4.3V1C16.9,0.4,16.5,0,15.9,0z M8.2,9.5L6.7,10V9.9
	C6.5,9.3,6.1,9.1,5.6,9.1c-0.6,0-1.2,0.4-1.2,1.5c0,1.1,0.6,1.6,1.2,1.6c0.5,0,0.9-0.3,1.1-0.8v-0.1l1.5,0.4v0.1
	c-0.3,1.2-1.3,1.9-2.6,1.9c-1.5,0-2.9-0.9-2.9-3.1c0-1.5,0.9-3.1,2.9-3.1C7,7.5,7.9,8.2,8.2,9.5L8.2,9.5z M12.2,13.7h-1.6l-2-6h1.7
	l1.1,3.4l1.1-3.4h1.7L12.2,13.7z"/>
</svg>
