<svg height="20" viewBox="0 0 20 20" width="20" xmlns="http://www.w3.org/2000/svg"><path d="m14.9583333 8.0625v1.47916667h6.0625v-1.47916667h1.875v1.47916667h4.9791667v17.54166663h-19.79166667v-17.54166663h4.99999997v-1.47916667zm11.0833334 8.25h-16.06250003v8.9166667h16.06250003zm-6.3958334 5.3333333v1.875h-3.3125v-1.875zm-4.6875 0v1.875h-3.3125v-1.875zm9.3958334 0v1.875h-3.3125v-1.875zm-4.7083334-3.6041666v1.875h-3.3125v-1.875zm-4.6875 0v1.875h-3.3125v-1.875zm9.3958334 0v1.875h-3.3125v-1.875zm-11.25-6.625h-3.12500003v3.0416666h16.06250003v-3.0416666h-3.125v1.4791666h-1.875v-1.4791666h-6.0625v1.4791666h-1.875z" fill="#002d73" fill-rule="evenodd" transform="translate(-8 -8)"/></svg>