<svg version="1.1" xmlns="http://www.w3.org/2000/svg" xmlns:xlink="http://www.w3.org/1999/xlink" x="0px" y="0px"
	 viewBox="0 0 16.7 16.7" style="enable-background:new 0 0 16.7 16.7;" xml:space="preserve">
<path d="M1.4,7.7c0.1-0.7,0.2-1.3,0.5-2h1.7C3.4,6.3,3.3,7,3.3,7.7H1.4z M3.5,11H1.8
	c-0.3-0.6-0.4-1.3-0.5-2h1.9C3.3,9.7,3.4,10.3,3.5,11L3.5,11z M7.7,9v2H4.9c-0.1-0.6-0.2-1.3-0.3-2H7.7z M7.7,12.3v2.9
	c-1-0.3-1.8-1.4-2.4-2.9H7.7z M3.9,12.3c0.3,0.8,0.6,1.5,1,2.2c-0.9-0.5-1.7-1.3-2.3-2.2H3.9z M2.5,4.4C3.2,3.5,4,2.8,4.9,2.2
	c-0.4,0.6-0.7,1.3-1,2.2H2.5z M7.7,5.7v2h-3c0-0.7,0.1-1.3,0.3-2H7.7z M7.7,1.4v2.9H5.3C5.8,2.8,6.7,1.8,7.7,1.4L7.7,1.4z
	 M11.4,12.3c-0.6,1.5-1.4,2.6-2.4,2.9v-2.9H11.4z M14.1,12.3c-0.6,0.9-1.4,1.6-2.3,2.2c0.4-0.6,0.7-1.3,1-2.2H14.1z M9,7.7v-2h2.8
	C11.9,6.3,12,7,12,7.7H9z M9,4.4V1.4c1,0.3,1.8,1.4,2.4,2.9H9z M11.8,2.2c0.9,0.5,1.7,1.3,2.3,2.2h-1.3C12.5,3.6,12.2,2.8,11.8,2.2
	L11.8,2.2z M9,11V9h3c0,0.7-0.1,1.3-0.3,2H9z M15.3,7.7h-1.9c0-0.7-0.1-1.3-0.2-2h1.7C15.1,6.3,15.2,7,15.3,7.7L15.3,7.7z M15.3,9
	c-0.1,0.7-0.2,1.3-0.5,2h-1.7c0.1-0.6,0.2-1.3,0.2-2H15.3z M16.6,7.7C16.3,3.6,13.1,0.3,9,0v0H7.8L7.7,0v0C3.6,0.3,0.3,3.6,0,7.7h0
	v1.2L0,9h0c0.3,4.1,3.6,7.3,7.6,7.6v0h1.2l0.1,0v0c4.1-0.3,7.3-3.6,7.6-7.6h0L16.6,7.7L16.6,7.7z"/>
</svg>
