<svg height="19" viewBox="0 0 19 19" width="19" xmlns="http://www.w3.org/2000/svg"><path d="m15.5109877 8c-4.1325013 0-7.5109877 3.3784931-7.5109877 7.5109877 0 4.1324968 3.3784864 7.5110053 7.5109877 7.5110053 1.5916004 0 3.0690779-.5007178 4.2870508-1.3530823l4.9360004 4.9428926c.5175955.5175954 1.3601516.5175954 1.877747 0 .5176175-.5175954.5176175-1.3601294 0-1.8777469l-4.9428927-4.9360002c.8523646-1.2179729 1.3530824-2.6954726 1.3530824-4.2870685 0-4.1325013-3.3785088-7.5109877-7.5109879-7.5109877zm0 2.6509368c2.6997803 0 4.8600508 2.1602484 4.8600508 4.8600509 0 2.6997759-2.1602705 4.8600685-4.8600508 4.8600685-2.6998025 0-4.8600509-2.1602926-4.8600509-4.8600685 0-2.6998091 2.1602484-4.8600509 4.8600509-4.8600509z" fill="#002d73" fill-rule="evenodd" transform="translate(-8 -8)"/></svg>
