<svg enable-background="new 0 0 95.6 76" viewBox="0 0 95.6 76" xmlns="http://www.w3.org/2000/svg"><path d="m21.7 0c6.3 0 11.5 2.1 15.7 6.1 4.1 4 6.2 9.3 6.2 15.6 0 3-.4 6-1.1 8.9-.7 3-2.4 7.4-4.9 13.3l-12.9 32.1h-22.9l9.8-35.3c-3.6-1.7-6.4-4.1-8.4-7.3-2.1-3.3-3.2-7.2-3.2-11.7 0-6.5 2.1-11.7 6.1-15.7 4.1-4 9.3-6 15.6-6zm2.3 75 12.7-31.5c2.5-5.8 4.1-10.3 4.8-13.2s1.1-5.8 1.1-8.7c0-6-2-11-5.9-14.9-4-3.7-9-5.7-15-5.7s-11 1.9-14.9 5.7c-3.8 3.8-5.8 8.8-5.8 15 0 4.3 1 8.1 3 11.2s4.8 5.5 8.4 7.1l.4.2-.1.4-9.6 34.4zm49.7-75c6.3 0 11.6 2.1 15.7 6.1s6.2 9.3 6.2 15.6c0 3-.4 6-1.1 8.9-.7 3-2.4 7.4-4.9 13.3l-12.9 32.1h-22.8l9.8-35.3c-3.6-1.7-6.4-4.1-8.4-7.3-2.1-3.3-3.2-7.3-3.2-11.7 0-6.4 2.1-11.7 6.1-15.7 4-4 9.3-6 15.5-6zm2.3 75 12.7-31.5c2.5-5.8 4.1-10.3 4.8-13.2s1.1-5.8 1.1-8.7c0-6-2-11-5.9-14.9-3.9-3.7-9-5.7-15-5.7s-11 1.9-14.9 5.7-5.8 8.8-5.8 15c0 4.3 1 8.1 3 11.2s4.8 5.5 8.4 7.1l.4.2-9.6 34.8z" fill="#ffb81a"/></svg>