<svg enable-background="new 0 0 35 35" viewBox="0 0 35 35" xmlns="http://www.w3.org/2000/svg"><path clip-rule="evenodd" d="m14.8 5c1.7 0 3.1 1.1 3.4 2.7h9.8c.6 0 1 .3 1 .8s-.4.9-.9.9h-9.8c-.4 1.5-1.8 2.7-3.4 2.7-1.7 0-3.1-1.1-3.4-2.7h-4.6c-.5 0-.9-.3-.9-.9s.4-.9.9-.9h4.5c.4-1.5 1.8-2.6 3.4-2.6zm6.2 8.8c1.7 0 3.1 1.2 3.5 2.7h3.6c.5 0 .9.4.9.9s-.4.9-.9.9h-3.6c-.4 1.5-1.8 2.7-3.5 2.7s-3.1-1.1-3.5-2.7h-10.6c-.5 0-.9-.4-.9-.9s.4-.9.9-.9h10.7c.4-1.5 1.8-2.7 3.4-2.7zm-6.2 8.9c1.7 0 3.1 1.1 3.4 2.7h9.8c.5 0 .9.4.9.9s-.4.9-.9.9h-9.8c-.4 1.5-1.8 2.7-3.4 2.7-1.7 0-3.1-1.1-3.4-2.7h-4.5c-.5 0-.9-.4-.9-.9s.4-.9.9-.9h4.5c.4-1.6 1.8-2.7 3.4-2.7z" fill="#002d73" fill-rule="evenodd"/></svg>