<svg height="77" viewBox="0 0 97 77" width="97" xmlns="http://www.w3.org/2000/svg"><path d="m21.3970588 75c6.1764706 0 11.25-1.9485294 15.2205883-5.8455882 3.9705882-3.8970589 5.9558823-9.007353 5.9558823-15.3308824 0-4.4117647-1.0294118-8.2352941-3.0882353-11.4705882s-4.9264706-5.6617647-8.6029412-7.2794118l9.7058824-35.0735294h-21.8382353l-12.79411765 31.7647059c-2.5 5.8823529-4.11764706 10.2941176-4.85294117 13.2352941-.73529412 2.9411765-1.10294118 5.8823529-1.10294118 8.8235294 0 6.1764706 2.02205882 11.25 6.06617647 15.2205882 4.04411763 3.9705883 9.15441173 5.9558824 15.33088233 5.9558824zm52.0588236 0c6.1764705 0 11.25-1.9485294 15.2205882-5.8455882 3.9705882-3.8970589 5.9558823-9.007353 5.9558823-15.3308824 0-4.4117647-1.0294117-8.2352941-3.0882353-11.4705882-2.0588235-3.2352941-4.9264705-5.6617647-8.6029411-7.2794118l9.7058823-35.0735294h-21.8382353l-12.7941176 31.7647059c-2.5 5.8823529-4.1176471 10.2941176-4.8529412 13.2352941s-1.1029412 5.8823529-1.1029412 8.8235294c0 6.1764706 2.0220589 11.25 6.0661765 15.2205882 4.0441176 3.9705883 9.1544118 5.9558824 15.3308824 5.9558824z" fill="none" stroke="#ffb81a" transform="translate(1 1)"/></svg>
