<svg enable-background="new 0 0 148.9 64.2" viewBox="0 0 148.9 64.2" xmlns="http://www.w3.org/2000/svg"><path d="m138.8 51.8-1.6 2.6-1.6 2.9-1.5-2.8-1.6-2.7h-2.3v.2l4.4 7.1v5h2v-5l4.4-7.1v-.2zm-12.3 0h-9.1v1.9h3.5v10.3h2v-10.4h3.5zm-19.2 12.2h5.9v-1.6h-1.9v-9h1.8v-1.6h-5.6v1.6h1.8v9h-1.9v1.6zm-9.3.2c2.9 0 4.8-1.4 4.8-3.7 0-2-1.5-3.2-4.7-3.6-2-.2-2.8-.7-2.8-1.8 0-1 .9-1.6 2.5-1.6 1.7 0 2.5.7 2.7 1.8h1.9c-.2-2.2-1.9-3.7-4.6-3.7-2.8 0-4.6 1.4-4.6 3.5s1.5 3.3 4.5 3.6c2.1.2 3 .8 3 1.8 0 1.1-1.1 1.8-2.8 1.8-1.8 0-2.8-.7-2.9-2h-2c.2 2.3 2 3.9 5 3.9zm-17.4-10.7h3c1.4 0 2.3.8 2.3 2.2s-.8 2.2-2.3 2.2h-3zm4.9 6c1.6-.6 2.5-1.9 2.5-3.8 0-2.4-1.7-3.9-4.2-3.9h-5.1v12.2h2v-4.2h2.8l3 4.2h2.3v-.1zm-18.2 2.7v-3.5h5.1v-1.8h-5.1v-3.2h5.4v-1.9h-7.4v12.2h7.6v-1.9h-5.6zm-9.1-10.4-1.8 4.2-1.6 4.5-1.7-4.5-1.8-4.3h-2.2v.2l5.3 12.2h.7l5.3-12.2v-.2h-2.2zm-19.1 12.2h5.9v-1.6h-1.9v-9h1.8v-1.6h-5.6v1.6h1.7v9h-1.9zm-7.4-12.2v4.5l.1 3.6-7.4-8.1h-.7v12.2h2v-4.4l-.1-3.7 7.4 8.1h.7v-12.2zm-18.9 12.4c2.9 0 4.7-1.9 4.7-4.8v-7.6h-2v7.7c0 1.8-1 2.9-2.7 2.9s-2.8-1.1-2.8-2.9v-7.7h-2v7.6c0 2.9 1.9 4.8 4.8 4.8z" fill="#ffb81a"/><path d="m132.4 34.3v-6.8h14.7v-10h-14.7v-6.5h16v-10.3h-27.4v43.8h27.9v-10.2zm-37 10.9c12 0 19.6-7 21.6-17.4h-11.3c-1.6 4-5.1 6.5-9.9 6.5-6.5 0-10.8-4.7-10.8-11.7 0-7.1 4.3-11.7 10.8-11.7 4.4 0 7.8 2.1 9.5 5.7h11.4c-2.3-10-9.7-16.6-21.3-16.6-12.9 0-22 9.3-22 22.6s9.1 22.6 22 22.6zm-43.2-26.8 3.9 10.7h-8.1zm2.5-18.2h-5l-20.6 43.7v.6h12.3l2.4-5.6h16.5l2.5 5.6h12.3v-.6zm-36.6 22.4h-6.6v-12h6.6c3.7 0 5.9 2.1 5.9 5.9s-2.2 6.1-5.9 6.1zm1.1-21.9h-19.2v43.8h11.5v-12.1h7.8c9.8 0 16.4-6.3 16.4-15.9-.1-9.5-6.5-15.8-16.5-15.8z" fill="#fff"/></svg>