<svg enable-background="new 0 0 19 19.1" viewBox="0 0 19 19.1" xmlns="http://www.w3.org/2000/svg"><path d="m9.5 0c-2.6 0-2.9 0-3.9.1-1 0-1.7.2-2.3.4s-1.2.6-1.7 1.1-.9 1.1-1.1 1.7-.4 1.3-.4 2.3c-.1 1-.1 1.3-.1 3.9s0 2.9.1 3.9c0 1 .2 1.7.4 2.3s.6 1.2 1.1 1.7 1.1.9 1.7 1.1 1.3.4 2.3.4 1.3.1 3.9.1 2.9 0 3.9-.1c1 0 1.7-.2 2.3-.4s1.2-.6 1.7-1.1.9-1.1 1.1-1.7.4-1.3.4-2.3.1-1.3.1-3.9 0-2.9-.1-3.9c0-1-.2-1.7-.4-2.3s-.6-1.2-1.1-1.7-1.1-.9-1.7-1.1-1.3-.4-2.3-.4c-1-.1-1.3-.1-3.9-.1m0 1.7c2.5 0 2.8 0 3.8.1.9 0 1.4.2 1.8.3.4.2.8.4 1.1.7s.5.7.7 1.1c.1.3.3.8.3 1.8s.1 1.3.1 3.9c0 2.5 0 2.8-.1 3.8 0 .9-.2 1.4-.3 1.8-.2.4-.4.8-.7 1.1s-.6.5-1.1.7c-.3.1-.8.3-1.8.3s-1.3.1-3.8.1-2.8 0-3.8-.1c-.9 0-1.4-.2-1.8-.3-.4-.2-.8-.4-1.1-.7s-.5-.7-.7-1.1c-.1-.3-.3-.8-.3-1.8s-.1-1.3-.1-3.8 0-2.8.1-3.9c0-.9.2-1.4.3-1.8.2-.4.4-.8.7-1.1s.6-.5 1.1-.7c.3-.1.8-.3 1.8-.3 1-.1 1.3-.1 3.8-.1m0 11c-1.7 0-3.2-1.4-3.2-3.2s1.4-3.2 3.2-3.2 3.2 1.4 3.2 3.2-1.5 3.2-3.2 3.2m0-8.1c-2.7 0-4.9 2.2-4.9 4.9s2.2 4.9 4.9 4.9 4.9-2.2 4.9-4.9-2.2-4.9-4.9-4.9m6.2-.2c0 .6-.5 1.1-1.1 1.1s-1.1-.5-1.1-1.1.5-1.1 1.1-1.1 1.1.5 1.1 1.1"/></svg>