<svg version="1.1" xmlns="http://www.w3.org/2000/svg" xmlns:xlink="http://www.w3.org/1999/xlink" x="0px" y="0px"
	 viewBox="0 0 19 19" style="enable-background:new 0 0 19 19;" xml:space="preserve">
<path d="M19,15.4c0,2-1.6,3.6-3.6,3.6H3.6c-2,0-3.6-1.6-3.6-3.6V3.6C0,1.6,1.6,0,3.6,0h11.8
	c2,0,3.6,1.6,3.6,3.6C19,3.6,19,15.4,19,15.4z M4.4,3.2c-1,0-1.6,0.6-1.6,1.5C2.7,5.6,3.3,6.2,4.3,6.2l0,0c1,0,1.6-0.6,1.6-1.5
	S5.3,3.2,4.4,3.2z M5.8,15.9V7.3H3v8.6H5.8z M16,15.9V11c0-2.6-1.4-3.8-3.3-3.8c-1.5,0-2.1,0.9-2.5,1.5l0,0V7.5H7.4c0,0,0,0.9,0,8.6
	h2.8v-4.9c0-0.2,0-0.5,0.1-0.7c0.1-0.5,0.6-1,1.5-1c1,0,1.5,0.7,1.5,2v4.6H16V15.9z"/>
</svg>
