<svg version="1.1" xmlns="http://www.w3.org/2000/svg" xmlns:xlink="http://www.w3.org/1999/xlink" x="0px" y="0px"
	 viewBox="0 0 30 30" style="enable-background:new 0 0 30 30;" xml:space="preserve">
   <title>LinkedIn</title>
<path id="socialicon-linkedin-path" class="st0" d="M25,21.4c0,2-1.6,3.6-3.6,3.6H9.6c-2,0-3.6-1.6-3.6-3.6V9.6C6,7.6,7.6,6,9.6,6
	h11.8c2,0,3.6,1.6,3.6,3.6V21.4z M10.4,9.2c-1,0-1.6,0.6-1.6,1.5c-0.1,0.9,0.5,1.5,1.5,1.5l0,0c1,0,1.6-0.6,1.6-1.5
	C11.9,9.8,11.3,9.2,10.4,9.2z M11.8,21.9v-8.6H9v8.6H11.8z M22,21.9V17c0-2.6-1.4-3.8-3.3-3.8c-1.5,0-2.1,0.9-2.5,1.5l0,0v-1.2h-2.8
	c0,0,0,0.9,0,8.6h2.8v-4.9c0-0.2,0-0.5,0.1-0.7c0.1-0.5,0.6-1,1.5-1c1,0,1.5,0.7,1.5,2v4.6H22L22,21.9z"/>
</svg>
