<svg enable-background="new 0 0 320 200" viewBox="0 0 320 200" xmlns="http://www.w3.org/2000/svg" xmlns:xlink="http://www.w3.org/1999/xlink"><linearGradient id="a" gradientUnits="userSpaceOnUse" x1="290.55" x2="290.55" y1="200.2" y2="0"><stop offset="0" stop-color="#d8dbde"/><stop offset="1" stop-color="#fff" stop-opacity="0"/></linearGradient><path d="m878 .2-115.3 199.6-.1.2.4.2.1-.2 115.3-199.5.1-.2-.4-.3zm-5.3 0-115.3 199.6-.1.2.4.2.1-.2 115.3-199.5.1-.2-.4-.3zm-5.4 0-115.2 199.6-.1.2.4.2.1-.2 115.3-199.5.1-.2-.4-.3zm-5.3 0-115.2 199.6-.1.2.4.2.1-.2 115.2-199.5.1-.2-.4-.3zm-5.3 0-115.3 199.6-.1.2.4.2.1-.2 115.3-199.5.1-.2-.4-.3zm-5.3 0-115.3 199.6-.1.2.4.2.1-.2 115.3-199.5.1-.2-.4-.3zm-5.4 0-115.2 199.6-.1.2.4.2.1-.2 115.3-199.5.1-.2-.4-.3zm-5.3 0-115.2 199.6-.1.2.4.2.1-.2 115.2-199.5.1-.2-.4-.3zm-5.3 0-115.3 199.6-.1.2.4.2.1-.2 115.3-199.5.1-.2-.4-.3zm-5.3 0-115.3 199.6-.1.2.4.2.1-.2 115.3-199.5.1-.2-.4-.3zm-5.4 0-115.2 199.6-.1.2.4.2.1-.2 115.2-199.5.1-.2-.3-.3zm-5.3 0-115.3 199.6-.1.2.4.2.1-.2 115.3-199.5.1-.2-.4-.3zm-5.3 0-115.3 199.6-.1.2.4.2.1-.2 115.3-199.5.1-.2-.4-.3zm-5.4 0-115.2 199.6-.1.2.4.2.1-.2 115.3-199.5.1-.2-.4-.3zm-5.3 0-115.2 199.6-.2.2.4.2.1-.2 115.3-199.5.1-.2-.4-.3zm-5.3 0-115.3 199.6-.1.2.4.2.1-.2 115.3-199.5.1-.2-.4-.3zm-5.3 0-115.3 199.6-.1.2.4.2.1-.2 115.3-199.5.1-.2-.4-.3zm-5.4 0-115.2 199.6-.1.2.4.2.1-.2 115.3-199.5.1-.2-.4-.3zm-5.3 0-115.2 199.6-.1.2.4.2.1-.2 115.2-199.5.1-.2-.4-.3zm-5.3 0-115.3 199.6-.1.2.4.2.1-.2 115.3-199.5.1-.2-.4-.3zm-5.3 0-115.3 199.6-.1.2.4.2.1-.2 115.3-199.5.1-.2-.4-.3zm-5.4 0-115.2 199.6-.1.2.4.2.1-.2 115.3-199.5.1-.2-.4-.3zm-5.3 0-115.2 199.6-.1.2.4.2.1-.2 115.2-199.5.1-.2-.4-.3zm-5.3 0-115.3 199.6-.1.2.4.2.1-.2 115.3-199.5.1-.2-.4-.3zm-5.3 0-115.3 199.6-.1.2.4.2.1-.2 115.3-199.5.1-.2-.4-.3zm-5.4 0-115.2 199.6-.1.2.4.2.1-.2 115.2-199.5.1-.2-.4-.3zm-5.3 0-115.3 199.6-.1.2.4.2.1-.2 115.3-199.5.1-.2-.4-.3zm-5.3 0-115.3 199.6-.1.2.4.2.1-.2 115.3-199.5.1-.2-.4-.3zm-5.4 0-115.2 199.6-.1.2.4.2.1-.2 115.3-199.5.1-.2-.4-.3zm-5.3 0-115.2 199.6-.1.2.4.2.1-.2 115.2-199.5.1-.2-.4-.3zm-5.3 0-115.3 199.6-.1.2.4.2.1-.2 115.3-199.5.1-.2-.4-.3zm-5.3 0-115.3 199.6-.1.2.4.2.1-.2 115.3-199.5.1-.2-.4-.3zm-5.4 0-115.2 199.6-.1.2.4.2.1-.2 115.3-199.5.1-.2-.4-.3zm-5.3 0-115.2 199.6-.1.2.4.2.1-.2 115.2-199.5.1-.2-.4-.3zm-5.3 0-115.3 199.6-.1.2.4.2.1-.2 115.3-199.5.1-.2-.4-.3zm-5.3 0-115.3 199.6-.1.2.4.2.1-.2 115.3-199.5.1-.2-.4-.3zm-5.4 0-115.2 199.6-.1.2.4.2.1-.2 115.3-199.5.1-.2-.4-.3zm-5.3 0-115.3 199.6-.1.2.4.2.1-.2 115.3-199.5.1-.2-.4-.3zm-5.3 0-115.3 199.6-.1.2.4.2.1-.2 115.3-199.5.1-.2-.4-.3zm-5.3 0-115.3 199.6-.1.2.4.2.1-.2 115.3-199.5.1-.2-.4-.3zm-5.4 0-115.2 199.6-.1.2.4.2.1-.2 115.2-199.5.1-.2-.4-.3zm-5.3 0-115.3 199.6-.1.2.4.2.1-.2 115.3-199.5.1-.2-.4-.3zm-5.3 0-115.3 199.6-.1.2.4.2.1-.2 115.3-199.5.1-.2-.4-.3zm-5.4 0-115.2 199.6-.1.2.4.2.1-.2 115.3-199.5.1-.2-.4-.3zm-5.3 0-115.2 199.6-.1.2.4.2.1-.2 115.2-199.5.1-.2-.4-.3zm-5.3 0-115.3 199.6-.1.2.4.2.1-.2 115.3-199.5.1-.2-.4-.3zm-5.3 0-115.3 199.6-.1.2.4.2.1-.2 115.3-199.5.1-.2-.4-.3zm-5.4 0-115.2 199.6-.1.2.4.2.1-.2 115.3-199.5.1-.2-.4-.3zm-5.3 0-115.2 199.6-.1.2.4.2.1-.2 115.2-199.5.1-.2-.4-.3zm-5.3 0-115.3 199.6-.1.2.4.2.1-.2 115.3-199.5.1-.2-.4-.3zm-5.3 0-115.3 199.6-.1.2.4.2.1-.2 115.3-199.5.1-.2-.4-.3zm-5.4 0-115.2 199.6-.1.2.4.2.1-.2 115.2-199.5.1-.2-.4-.3zm-5.3 0-115.3 199.6-.1.2.4.2.1-.2 115.3-199.5.1-.2-.4-.3zm-5.3 0-115.3 199.6-.1.2.4.2.1-.2 115.3-199.5.1-.2-.4-.3zm-5.4 0-115.2 199.6-.1.2.4.2.1-.2 115.3-199.5.1-.2-.4-.3zm-5.3 0-115.2 199.6-.1.2.4.2.1-.2 115.2-199.5.1-.2-.4-.3zm-5.3 0-115.3 199.6-.1.2.4.2.1-.2 115.3-199.5.1-.2-.4-.3zm-5.3 0-115.3 199.6-.1.2.4.2.1-.2 115.3-199.5.1-.2-.4-.3zm-5.4 0-115.2 199.6-.1.2.4.2.1-.2 115.3-199.5.1-.2-.4-.3zm-5.3 0-115.2 199.6-.1.2.4.2.1-.2 115.2-199.5.1-.2-.4-.3zm-5.3 0-115.3 199.6-.1.2.4.2.1-.2 115.3-199.5.1-.2-.4-.3zm-5.3 0-115.3 199.6-.1.2.4.2.1-.2 115.3-199.5.1-.2-.4-.3zm-5.4 0-115.2 199.6-.1.2.4.2.1-.2 115.3-199.5.1-.2-.4-.3zm-5.3 0-115.2 199.6-.2.2.4.2.1-.2 115.3-199.5.1-.2-.4-.3zm-5.3 0-115.3 199.6-.1.2.4.2.1-.2 115.3-199.5.1-.2-.4-.3zm-5.3 0-115.3 199.6-.1.2.4.2.1-.2 115.3-199.5.1-.2-.4-.3zm-5.4 0-115.2 199.6-.2.2.4.2.1-.2 115.3-199.5.1-.2-.4-.3zm-5.3 0-115.3 199.6-.1.2.4.2.1-.2 115.3-199.5.1-.2-.4-.3zm-5.3 0-115.3 199.6-.1.2.4.2.1-.2 115.3-199.5.1-.2-.4-.3zm-5.4 0-115.2 199.6-.1.2.4.2.1-.2 115.3-199.5.1-.2-.4-.3zm-5.3 0-115.2 199.6-.1.2.4.2.1-.2 115.2-199.5.1-.2-.4-.3zm-5.3 0-115.3 199.6-.1.2.4.2.1-.2 115.3-199.5.1-.2-.4-.3zm-5.3 0-115.3 199.6-.1.2.4.2.1-.2 115.3-199.5.1-.2-.4-.3zm-5.4 0-115.2 199.6-.1.2.4.2.1-.2 115.3-199.5.1-.2-.4-.3zm-5.3 0-115.2 199.6-.1.2.4.2.1-.2 115.2-199.5.1-.2-.4-.3zm-5.3 0-115.3 199.6-.1.2.4.2.1-.2 115.3-199.5.1-.2-.4-.3zm-5.3 0-115.3 199.6-.1.2.4.2.1-.2 115.3-199.5.1-.2-.4-.3zm-5.4 0-115.2 199.6-.1.2.4.2.1-.2 115.2-199.5.1-.2-.3-.3zm-5.3 0-115.3 199.6-.1.2.4.2.1-.2 115.3-199.5.1-.2-.4-.3zm-5.3 0-115.3 199.6-.1.2.4.2.1-.2 115.3-199.5.1-.2-.4-.3zm-5.4 0-115.2 199.6-.1.2.4.2.1-.2 115.3-199.5.1-.2-.4-.3zm-5.3 0-115.2 199.6-.1.2.4.2.1-.2 115.2-199.5.1-.2-.4-.3zm-5.3 0-115.3 199.6-.1.2.4.2.1-.2 115.3-199.5.1-.2-.4-.3zm-5.3 0-115.3 199.6-.1.2.4.2.1-.2 115.3-199.5.1-.2-.4-.3zm-5.4 0-115.2 199.6-.1.2.4.2.1-.2 115.3-199.5.1-.2-.4-.3zm-5.3 0-115.2 199.6-.1.2.4.2.1-.2 115.2-199.5.1-.2-.4-.3zm-5.3 0-115.3 199.6-.1.2.4.2.1-.2 115.3-199.5.1-.2-.4-.3zm-5.3 0-115.3 199.6-.1.2.4.2.1-.2 115.3-199.5.1-.2-.4-.3zm-5.4 0-115.2 199.6-.1.2.4.2.1-.2 115.3-199.5.1-.2-.4-.3zm-5.3 0-115.2 199.6-.1.2.4.2.1-.2 115.2-199.5.1-.2-.4-.3zm-5.3 0-115.3 199.6-.1.2.4.2.1-.2 115.3-199.5.1-.2-.4-.3zm-5.3 0-115.3 199.6-.1.2.4.2.1-.2 115.3-199.5.1-.2-.4-.3zm-5.4 0-115.2 199.6-.1.2.4.2.1-.2 115.2-199.5.1-.2-.4-.3zm-5.3 0-115.3 199.6-.1.2.4.2.1-.2 115.3-199.5.1-.2-.4-.3zm-5.3 0-115.3 199.6-.1.2.4.2.1-.2 115.3-199.5.1-.2-.4-.3zm-5.4 0-115.2 199.6-.1.2.4.2.1-.2 115.3-199.5.1-.2-.4-.3zm-5.3 0-115.2 199.6-.1.2.4.2.1-.2 115.2-199.5.1-.2-.4-.3zm-5.3 0-115.3 199.6-.1.2.4.2.1-.2 115.3-199.5.1-.2-.4-.3zm-5.3 0-115.3 199.6-.1.2.4.2.1-.2 115.3-199.5.1-.2-.4-.3zm-5.4 0-115.2 199.6-.1.2.4.2.1-.2 115.3-199.5.1-.2-.4-.3zm-5.3 0-115.2 199.6-.1.2.4.2.1-.2 115.2-199.5.1-.2-.4-.3zm-5.3 0-115.3 199.6-.1.2.4.2.1-.2 115.3-199.5.1-.2-.4-.3zm-5.3 0-115.3 199.6-.1.2.4.2.1-.2 115.3-199.5.1-.2-.4-.3zm-5.4 0-115.2 199.6-.1.2.4.2.1-.2 115.2-199.5.1-.2-.3-.3zm-5.3 0-115.3 199.6-.1.2.4.2.1-.2 115.3-199.5.1-.2-.4-.3zm-5.3 0-115.3 199.6-.1.2.4.2.1-.2 115.3-199.5.1-.2-.4-.3zm-5.4 0-115.2 199.6-.1.2.4.2.1-.2 115.3-199.5.1-.2-.4-.3zm-5.3 0-115.2 199.6-.1.2.4.2.1-.2 115.2-199.5.1-.2-.4-.3zm-5.3 0-115.3 199.6-.1.2.4.2.1-.2 115.3-199.5.1-.2-.4-.3zm-5.3 0-115.3 199.6-.1.2.4.2.1-.2 115.3-199.5.1-.2-.4-.3zm-5.4 0-115.2 199.6-.1.2.4.2.1-.2 115.3-199.5.1-.2-.4-.3zm-5.3 0-115.2 199.6-.1.2.4.2.1-.2 115.2-199.5.1-.2-.4-.3zm-5.3 0-115.3 199.6-.1.2.4.2.1-.2 115.3-199.5.1-.2-.4-.3zm-5.3 0-115.3 199.6-.1.2.4.2.1-.2 115.3-199.5.1-.2-.4-.3zm-5.4 0-115.2 199.6-.1.2.4.2.1-.2 115.3-199.5.1-.2-.4-.3zm-5.3 0-115.2 199.6-.2.2.4.2.1-.2 115.3-199.5.1-.2-.4-.3zm-5.3 0-115.3 199.6-.1.2.4.2.1-.2 115.3-199.5.1-.2-.4-.3zm-5.3 0-115.3 199.6-.1.2.4.2.1-.2 115.3-199.5.1-.2-.4-.3zm-5.4 0-115.2 199.6-.1.2.4.2.1-.2 115.2-199.5.1-.2-.4-.3zm-5.3 0-115.3 199.6-.1.2.4.2.1-.2 115.3-199.5.1-.2-.4-.3zm-5.3 0-115.3 199.6-.1.2.4.2.1-.2 115.3-199.5.1-.2-.4-.3zm-5.4 0-115.2 199.6-.1.2.4.2.1-.2 115.3-199.5.1-.2-.4-.3zm-5.3 0-115.2 199.6-.1.2.4.2.1-.2 115.2-199.5.1-.2-.4-.3zm-5.3 0-115.3 199.6-.1.2.4.2.1-.2 115.3-199.5.1-.2-.4-.3zm-5.3 0-115.3 199.6-.1.2.4.2.1-.2 115.3-199.5.1-.2-.4-.3zm-5.4 0-115.2 199.6-.1.2.4.2.1-.2 115.3-199.5.1-.2-.4-.3zm-5.3 0-115.2 199.6-.1.2.4.2.1-.2 115.2-199.5.1-.2-.4-.3zm-5.3 0-115.3 199.6-.1.2.4.2.1-.2 115.3-199.5.1-.2-.4-.3zm-5.3 0-115.3 199.6-.1.2.4.2.1-.2 115.3-199.5.1-.2-.4-.3zm-5.4 0-115.2 199.6-.1.2.4.2.1-.2 115.3-199.5.1-.2-.4-.3zm-5.3 0-115.2 199.6-.1.2.4.2.1-.2 115.2-199.5.1-.2-.4-.3zm-5.3 0-115.3 199.6-.1.2.4.2.1-.2 115.3-199.5.1-.2-.4-.3zm-5.3 0-115.3 199.6-.1.2.4.2.1-.2 115.3-199.5.1-.2-.4-.3zm-5.4 0-115.2 199.6-.1.2.4.2.1-.2 115.2-199.5.1-.2-.4-.3zm-5.3 0-115.3 199.6-.1.2.4.2.1-.2 115.3-199.5.1-.2-.4-.3zm-5.3 0-115.3 199.6-.1.2.4.2.1-.2 115.3-199.5.1-.2-.4-.3zm-5.4 0-115.2 199.6-.1.2.4.2.1-.2 115.3-199.5.1-.2-.4-.3zm-5.3 0-115.2 199.6-.1.2.4.2.1-.2 115.2-199.5.1-.2-.4-.3zm-5.3 0-115.3 199.6-.1.2.4.2.1-.2 115.3-199.5.1-.2-.4-.3zm-5.3 0-115.3 199.6-.1.2.4.2.1-.2 115.3-199.5.1-.2-.4-.3zm-5.4 0-115.2 199.6-.1.2.4.2.1-.2 115.3-199.5.1-.2-.4-.3zm-5.3 0-115.2 199.6-.1.2.4.2.1-.2 115.2-199.5.1-.2-.4-.3zm-5.3 0-115.3 199.6-.1.2.4.2.1-.2 115.3-199.5.1-.2-.4-.3zm-5.3 0-115.3 199.6-.1.2.4.2.1-.2 115.3-199.5.1-.2-.4-.3zm-5.4 0-115.2 199.6-.1.2.4.2.1-.2 115.2-199.5.1-.2-.4-.3zm-5.3 0-115.3 199.6-.1.2.4.2.1-.2 115.3-199.5.1-.2-.4-.3zm-5.3 0-115.3 199.6-.1.2.4.2.1-.2 115.3-199.5.1-.2-.4-.3zm-5.4 0-115.2 199.6-.1.2.4.2.1-.2 115.3-199.5.1-.2-.4-.3zm-5.3 0-115.2 199.6-.1.2.4.2.1-.2 115.2-199.5.1-.2-.4-.3zm-5.3 0-115.3 199.6-.1.2.4.2.1-.2 115.3-199.5.1-.2-.4-.3zm-5.3 0-115.3 199.6-.1.2.4.2.1-.2 115.3-199.5.1-.2-.4-.3zm-5.4 0-115.2 199.6-.1.2.4.2.1-.2 115.3-199.5.1-.2-.4-.3zm-5.3 0-115.2 199.6-.1.2.4.2.1-.2 115.2-199.5.1-.2-.4-.3zm-5.3 0-115.3 199.6-.1.2.4.2.1-.2 115.3-199.5.1-.2-.4-.3zm-5.3 0-115.3 199.6-.1.2.4.2.1-.2 115.3-199.5.1-.2-.4-.3zm-5.4 0-115.2 199.6-.1.2.4.2.1-.2 115.3-199.5.1-.2-.4-.3zm-5.3 0-115.2 199.6-.1.2.4.2.1-.2 115.2-199.5.1-.2-.4-.3zm-5.3 0-115.3 199.6-.1.2.4.2.1-.2 115.3-199.5.1-.2-.4-.3zm-5.3 0-115.3 199.6-.1.2.4.2.1-.2 115.3-199.5.1-.2-.4-.3zm-5.4 0-115.2 199.6-.1.2.4.2.1-.2 115.2-199.5.1-.2-.4-.3zm-5.3 0-115.3 199.6-.1.2.4.2.1-.2 115.3-199.5.1-.2-.4-.3zm-5.3 0-115.3 199.6-.1.2.4.2.1-.2 115.3-199.5.1-.2-.4-.3zm-5.4 0-115.3 199.6-.1.2.4.2.1-.2 115.4-199.5.1-.2-.4-.3zm-5.3 0-115.3 199.6-.1.2.4.2.1-.2 115.3-199.5.1-.2-.4-.3zm-5.3 0-115.3 199.6-.1.2.4.2.1-.2 115.3-199.5.1-.2-.4-.3zm-5.3 0-115.3 199.6-.1.2.4.2.1-.2 115.3-199.5.1-.2-.4-.3zm-5.4 0-115.3 199.6-.1.2.4.2.1-.2 115.4-199.5.1-.2-.4-.3zm-5.3 0-115.3 199.6-.1.2.4.2.1-.2 115.3-199.5.1-.2-.4-.3zm-5.3 0-115.3 199.6-.1.2.4.2.1-.2 115.3-199.5.1-.2-.4-.3zm-5.3 0-115.3 199.6-.1.2.4.2.1-.2 115.3-199.5.1-.2-.4-.3zm-5.4 0-115.3 199.6-.1.2.4.2.1-.2 115.3-199.5.1-.2-.3-.3zm-5.3 0-115.3 199.6-.1.2.4.2.1-.2 115.3-199.5.1-.2-.4-.3zm-5.3 0-115.3 199.6-.1.2.4.2.1-.2 115.3-199.5.1-.2-.4-.3zm-5.4 0-115.3 199.6-.1.2.4.2.1-.2 115.4-199.5.1-.2-.4-.3zm-5.3 0-115.3 199.6-.1.2.4.2.1-.2 115.3-199.5.1-.2-.4-.3zm-5.3 0-115.3 199.6-.1.2.4.2.1-.2 115.3-199.5.1-.2-.4-.3zm-5.3 0-115.3 199.6-.1.2.4.2.1-.2 115.3-199.5.1-.2-.4-.3zm-5.4 0-115.3 199.6-.1.2.4.2.1-.2 115.4-199.5.1-.2-.4-.3zm-5.3 0-115.3 199.6-.1.2.4.2.1-.2 115.3-199.5.1-.2-.4-.3zm-5.3 0-115.3 199.6-.1.2.4.2.1-.2 115.3-199.5.1-.2-.4-.3zm-5.3 0-115.3 199.6-.1.2.4.2.1-.2 115.3-199.5.1-.2-.4-.3zm-5.4 0-115.3 199.6-.1.2.4.2.1-.2 115.4-199.5.1-.2-.4-.3zm-5.3 0-115.3 199.6-.1.2.4.2.1-.2 115.3-199.5.1-.2-.4-.3zm-5.3 0-115.3 199.6-.1.2.4.2.1-.2 115.3-199.5.1-.2-.4-.3zm-5.3 0-115.3 199.6-.1.2.4.2.1-.2 115.3-199.5.1-.2-.4-.3zm-5.4 0-115.3 199.6-.1.2.4.2.1-.2 115.3-199.5.1-.2zm-5.3 0-115.3 199.6-.1.2.4.2.1-.2 115.3-199.5.1-.2zm-5.3 0-115.3 199.6-.1.2.4.2.1-.2 115.3-199.5.1-.2-.4-.3zm-5.4 0-115.3 199.6-.1.2.4.2.1-.2 115.4-199.5.1-.2-.4-.2zm-5.3 0-115.2 199.6-.1.2.4.2.1-.2 115.2-199.5.1-.2-.4-.2zm-5.3 0-115.3 199.6-.1.2.4.2.1-.2 115.3-199.5.1-.2-.4-.3zm-5.3 0-115.3 199.6-.1.2.4.2.1-.2 115.3-199.5.1-.2-.4-.2zm-5.4 0-115.2 199.6-.1.2.4.2.1-.2 115.3-199.5.1-.2-.4-.2zm-5.3 0-115.3 199.6-.1.2.4.2.1-.2 115.3-199.5.1-.2-.4-.3zm-5.3 0-115.3 199.6-.1.2.4.2.1-.2 115.3-199.5.1-.2-.4-.2zm-5.3 0-115.3 199.6-.1.2.4.2.1-.2 115.3-199.5.1-.2-.4-.2zm-5.4 0-115.3 199.6-.1.2.4.2.1-.2 115.4-199.5.1-.2-.4-.2zm-5.3 0-115.3 199.6-.1.2.4.2.1-.2 115.3-199.5.1-.2-.4-.2zm-5.3 0-115.3 199.6-.1.2.4.2.1-.2 115.3-199.5.1-.2-.4-.2zm-5.3 0-115.3 199.6-.1.2.4.2.1-.2 115.3-199.5.1-.2-.4-.2z" fill="url(#a)"/></svg>
