<svg version="1.1" xmlns="http://www.w3.org/2000/svg" xmlns:xlink="http://www.w3.org/1999/xlink" x="0px"
	 y="0px" viewBox="0 0 988.4 343.6" enable-background="new 0 0 988.4 343.6" xml:space="preserve">
  <style type="text/css">
    .st0{fill:#F0F0F0;}
  </style>
<path class="st0" d="M171.4,343.6c-48.3,0-92.2-17.3-123.6-48.7C17,263.9,0,221.2,0,174.6
	c0-47.4,17.5-91.4,49.2-123.8C81.3,18,125.3,0,173,0c47.9,0,91.6,17.7,123.1,49.8c31.1,31.8,48.3,75.5,48.3,123.1
	c0,73.1-43.3,126.2-103,126.2c-39.1,0-64.1-21.1-67.2-56.5c-7.9,8.8-18.6,13.3-32,13.3c-12.7,0-23.1-4.2-30-12.2
	c-7.3-8.4-10.1-20.4-8.1-34.5l11.2-78c3.9-27.8,21.5-44.5,47-44.5c13.7,0,24.4,5.4,30.5,15.2l3.2-12h39.7l3.3,5.6l-17.6,125.5
	c-1.9,12.7,0,22.7,5.5,29c4.2,4.9,10.5,7.5,18.3,7.5c14.1,0,28.2-8,38.5-22c11.1-15,17.3-35.7,17.3-58.2
	C300.8,95.1,250.3,42,172.2,42c-35.5,0-68.1,13.6-92,38.3c-23.6,24.5-36.6,57.7-36.6,93.5c0,74,55.3,129.8,128.6,129.8
	c13.7,0,20.1-1.6,20.2-1.6l1-0.3l6.7,38.2l-0.7,0.3C199.2,340.4,192.6,343.6,171.4,343.6z M173,2C125.8,2,82.4,19.8,50.7,52.2
	C19.3,84.2,2,127.7,2,174.6c0,46.1,16.8,88.3,47.3,118.8c31,31.1,74.3,48.2,122.1,48.2c16.9,0,24.3-2.1,26.5-2.8l-6.1-34.6
	c-2.3,0.4-8.6,1.4-19.6,1.4c-74.5,0-130.6-56.7-130.6-131.8c0-36.3,13.2-70,37.2-94.8c24.2-25.1,57.4-39,93.4-39
	c38.5,0,71.1,12.8,94.5,37c23.6,24.5,36.1,59.2,36.1,100.4c0,22.9-6.3,44-17.6,59.3c-10.8,14.5-25.4,22.9-40.2,22.9
	c-8.4,0-15.2-2.8-19.8-8.1c-5.9-6.8-7.9-17.4-6-30.6L236.8,96l-2.3-4h-37.1l-4.1,15.4l-1.2-2.3c-5.4-10.5-16.1-16.3-29.9-16.3
	c-24.4,0-41.2,16-45,42.7l-11.2,78c-1.9,13.6,0.7,25,7.7,33c6.5,7.5,16.4,11.5,28.5,11.5c13.7,0,24.4-4.9,32-14.4l1.6-2.1l0.2,2.6
	c2.1,35.7,26.6,57.1,65.4,57.1c58.5,0,101-52.2,101-124.2c0-47.1-16.9-90.3-47.7-121.7C263.6,19.5,220.4,2,173,2z M163,216
	c-3.1,0-5.6-1.1-7.4-3.1c-2-2.2-2.8-5.4-2.4-9.3l9.2-65.6c1.3-7.3,5.6-11.3,12.2-11.3c3.1,0,5.6,1.1,7.4,3.1c2,2.2,2.8,5.4,2.4,9.3
	l0,0l-9.2,65.6C173.9,212,169.6,216,163,216z M174.6,128.8c-5.6,0-9.1,3.3-10.2,9.6l-9.2,65.6c-0.4,3.2,0.3,5.9,1.9,7.7
	c1.4,1.6,3.4,2.4,5.9,2.4c5.6,0,9.1-3.3,10.2-9.6l9.2-65.6c0.4-3.2-0.3-5.9-1.9-7.7C179.1,129.6,177.1,128.8,174.6,128.8z
	 M428.4,286h-62V4h69.8c51.2,0,78.2,26.3,78.2,76.2v34c0,25.4-7.3,45.1-21.7,58.5c-13.8,12.8-33.3,19.3-58.1,19.3h-6.2V286z
	 M368.4,284h58v-94h8.2c24.2,0,43.3-6.3,56.7-18.8c14-13,21.1-32.2,21.1-57v-34C512.4,31.7,486,6,436.2,6h-67.8V284z M435.4,138h-9
	V60h9c12.4,0,19,7.3,19,21v36C454.4,130.7,447.8,138,435.4,138z M428.4,136h7c11.4,0,17-6.2,17-19V81c0-12.8-5.6-19-17-19h-7V136z
	 M688.6,286h-64.1l-6-46h-32.2l-6,46h-60.1L574.6,4h59.6L688.6,286z M626.3,284h59.9L632.6,6h-56.3l-53.6,278h55.9l6-46h35.8
	L626.3,284z M614.1,192h-23.5l11.5-89.5L614.1,192z M592.9,190h18.9l-9.6-72.1L592.9,190z M770.6,290c-42.5,0-72.2-28.9-72.2-70.2
	v-148c0-21,7.6-39.1,21.9-52.3C733.8,6.9,752.2,0,772.2,0c41.3,0,70.2,28,70.2,68.2V112h-60V71c0-8.3-4-13-11-13s-11,4.7-11,13v148
	c0,8.3,4,13,11,13s11-4.7,11-13v-45h60v46.2c0,20.1-7.6,38.1-21.3,50.9C807.9,283.3,790,290,770.6,290z M772.2,2
	c-19.5,0-37.4,6.7-50.6,18.9c-13.9,12.9-21.2,30.5-21.2,50.9v148c0,20.4,7.1,37.7,20.4,50.1c12.6,11.7,30.3,18.1,49.8,18.1
	c18.9,0,36.3-6.5,49.1-18.4c13.5-12.5,20.7-29.6,20.7-49.4V176h-56v43c0,9.4-4.9,15-13,15c-8.1,0-13-5.6-13-15V71
	c0-9.4,4.9-15,13-15c8.1,0,13,5.6,13,15v39h56V68.2c0-19.8-6.9-36.6-19.9-48.6C808.2,8.2,791.1,2,772.2,2z M988.4,286h-120V4h118v62
	h-56v47.2h44v58h-44V224h58V286z M870.4,284h116v-58h-58v-56.8h44v-54h-44V64h56V6h-114V284z"/>
</svg>
