<svg version="1.1" xmlns="http://www.w3.org/2000/svg" xmlns:xlink="http://www.w3.org/1999/xlink"
	 x="0px" y="0px" viewBox="0 0 200.3 70" style="enable-background:new 0 0 200.3 70;" xml:space="preserve">
<style type="text/css">
	.st0{fill:#F0F0F0;}
</style>
<path class="st0" d="M35.2,0C25.5,0,16.5,3.7,10,10.3C3.6,16.9,0,25.9,0,35.5
	C0,45,3.5,53.7,9.7,60c6.4,6.4,15.3,9.9,25.2,9.9c3.9,0,5.3-0.5,5.7-0.7l0.4-0.2l-1.4-8.2l-0.5,0.1c-0.4,0.1-1.7,0.3-4,0.3
	c-14.7,0-25.7-11.2-25.7-26c0-7.2,2.6-13.8,7.3-18.7C21.4,11.7,28,9,35.1,9c15.6,0,25.7,10.6,25.8,27.1c0,4.5-1.2,8.6-3.4,11.6
	c-2,2.8-4.8,4.3-7.6,4.3c-1.5,0-2.7-0.5-3.5-1.4c-1.1-1.2-1.4-3.2-1.1-5.7l3.6-25.4l0-0.1L48,18.2h-8.4l-0.6,2.1
	c-1.3-1.8-3.5-2.7-6.1-2.7c-5.3,0-8.9,3.4-9.7,9.2L21,42.5c-0.4,2.9,0.2,5.4,1.7,7.2c1.4,1.7,3.6,2.6,6.3,2.6c2.6,0,4.7-0.8,6.3-2.4
	c0.8,7,6,11.1,13.8,11.1c12.2,0,21.1-10.8,21.1-25.8c0-9.7-3.5-18.6-9.8-25.1C53.9,3.6,45,0,35.2,0z M49,60.1
	c-7.7,0-12.6-4.2-13-11.3L36,47.6l-0.7,0.9c-1.5,1.9-3.6,2.8-6.3,2.8c-2.4,0-4.3-0.8-5.6-2.2c-1.4-1.5-1.9-3.8-1.5-6.5l2.3-15.8
	c0.8-5.3,4.1-8.4,8.8-8.4c2.7,0,4.8,1.1,5.8,3.2l0.5,1l0.9-3.5h7.2l0.4,0.6l-3.5,25.2c-0.4,2.8,0,5,1.3,6.4c1,1.1,2.4,1.7,4.2,1.7
	c3.1,0,6.1-1.7,8.3-4.7c2.3-3.1,3.6-7.5,3.6-12.1c0-8.4-2.5-15.5-7.4-20.5c-4.8-4.9-11.4-7.6-19.3-7.6c-7.3,0-14.1,2.8-19.1,8
	C11.1,21.1,8.4,28,8.4,35.4c0,15.3,11.5,26.9,26.6,26.9c1.4,0,2.7-0.1,3.8-0.2l1.2,6.5c-0.7,0.2-2.3,0.5-5.1,0.5
	c-9.6,0-18.3-3.4-24.5-9.7c-6.1-6.1-9.5-14.6-9.5-23.8c0-9.4,3.5-18.1,9.8-24.6C17,4.5,25.7,0.9,35.2,0.9c9.5,0,18.2,3.5,24.4,9.9
	c6.2,6.3,9.6,15,9.6,24.4C69.2,49.6,60.7,60.1,49,60.1z M35.5,25.6c-1.5,0-2.4,0.9-2.7,2.5L31,41.4c-0.1,0.9,0.1,1.6,0.5,2.1
	c0.4,0.5,1,0.7,1.7,0.7c1.5,0,2.4-0.9,2.7-2.5l1.9-13.3c0.1-0.9-0.1-1.6-0.5-2.1C36.8,25.9,36.2,25.6,35.5,25.6z M36.9,28.3L35,41.5
	c-0.2,1.2-0.8,1.7-1.8,1.7c-0.4,0-0.8-0.1-1-0.4c-0.3-0.3-0.4-0.8-0.3-1.4l1.9-13.3c0.2-1.2,0.8-1.7,1.8-1.7c0.4,0,0.8,0.1,1,0.4
	C36.8,27.2,36.9,27.7,36.9,28.3z M88.4,0.8H74.1v57.5h13v-19h1c5.1,0,9.1-1.3,11.9-4c3-2.8,4.5-6.8,4.5-12v-6.9
	C104.5,6.2,98.9,0.8,88.4,0.8z M103.6,23.3c0,4.9-1.4,8.8-4.2,11.3c-2.7,2.5-6.5,3.7-11.3,3.7h-1.9v19H75V1.7h13.5
	c9.9,0,15.2,5.1,15.2,14.7V23.3z M119.4,39.1l0,0.2h5.3L122,19L119.4,39.1z M123.6,38.4h-3.3L122,26L123.6,38.4z M188.6,45.3V35.1
	h8.9V22.9h-8.9v-9h11.3v-13h-24.4v57.5h24.8v-13H188.6z M199.4,57.4h-22.9V1.7H199v11.2h-11.3v10.8h8.9v10.4h-8.9v12h11.7V57.4z
	 M116.2,0.8l-11,57.2l-0.1,0.3h12.7L119,49h6.1l1.2,9.3h13.5L128.7,0.8H116.2z M127.1,57.4l-1.2-9.2l0-0.1h-7.7l-1.2,9.3h-10.8
	L117,1.7h11l10.7,55.7H127.1z M156.3,0c-4.1,0-7.9,1.4-10.7,4c-2.9,2.7-4.5,6.4-4.5,10.8v29.9c0,8.5,6.1,14.4,14.8,14.4
	c4,0,7.7-1.4,10.4-3.9c2.8-2.6,4.4-6.4,4.4-10.5v-9.6h-12.6v9.3c0,1.1-0.3,2.4-2,2.4s-2-1.3-2-2.4V14.6c0-1.1,0.3-2.4,2-2.4
	s2,1.3,2,2.4v8.5h12.6V14C170.8,5.8,164.8,0,156.3,0z M169.9,22.2h-10.8v-7.6c0-2.1-1.1-3.3-2.9-3.3c-1.8,0-2.9,1.2-2.9,3.3v29.9
	c0,2.1,1.1,3.3,2.9,3.3c1.8,0,2.9-1.2,2.9-3.3v-8.4h10.8v8.7c0,3.9-1.4,7.3-4.1,9.8c-2.5,2.4-6,3.7-9.8,3.7c-3.9,0-7.4-1.3-9.9-3.6
	c-2.6-2.5-4-5.9-4-9.9V14.8c0-4.1,1.5-7.6,4.2-10.1c2.6-2.4,6.2-3.8,10.1-3.8c3.8,0,7.2,1.2,9.6,3.5c2.6,2.4,3.9,5.7,3.9,9.6V22.2z
	 M88.3,12.1h-2.1v16.3h2.1c2.7,0,4.1-1.6,4.1-4.5v-7.3C92.4,13.7,90.9,12.1,88.3,12.1z M91.5,23.9c0,2.4-1,3.6-3.2,3.6h-1.2V13h1.2
	c2.2,0,3.2,1.1,3.2,3.6V23.9z"/>
</svg>
