<svg height="412" viewBox="0 0 768 412" width="768" xmlns="http://www.w3.org/2000/svg" xmlns:xlink="http://www.w3.org/1999/xlink"><linearGradient id="a" x1="50%" x2="50%" y1="98.663295%" y2="0%"><stop offset="0" stop-color="#D8DADE"/><stop offset="1" stop-color="#fff" stop-opacity="0"/></linearGradient><path d="m-375.316987-1.3169873-238 412.2280923m249-412.2280923-238 412.2280923m249-412.2280923-238 412.2280923m249-412.2280923-238 412.2280923m249-412.2280923-238 412.2280923m249-412.2280923-238 412.2280923m249-412.2280923-238 412.2280923m249-412.2280923-238 412.2280923m249-412.2280923-238 412.2280923m249-412.2280923-238 412.2280923m249-412.2280923-238 412.2280923m249-412.2280923-238 412.2280923m249-412.2280923-238 412.2280923m249-412.2280923-238 412.2280923m249-412.2280923-238 412.2280923m249-412.2280923-238 412.2280923m249-412.2280923-238 412.2280923m249-412.2280923-238 412.2280923m249-412.2280923-238 412.2280923m249-412.2280923-238 412.2280923m249-412.2280923-238 412.2280923m249-412.2280923-238 412.2280923m249-412.2280923-238 412.2280923m249-412.2280923-238 412.2280923m249-412.2280923-238 412.2280923m249-412.2280923-238 412.2280923m248.9999997-412.2280923-237.9999997 412.2280923m248.9999997-412.2280923-237.9999997 412.2280923m248.9999997-412.2280923-237.9999997 412.2280923m248.9999997-412.2280923-237.9999997 412.2280923m248.9999997-412.2280923-237.9999997 412.2280923m248.9999997-412.2280923-237.9999997 412.2280923m248.9999997-412.2280923-237.9999997 412.2280923m248.9999997-412.2280923-237.9999997 412.2280923m248.9999997-412.2280923-237.9999997 412.2280923m248.9999997-412.2280923-237.9999997 412.2280923m248.9999997-412.2280923-237.9999997 412.2280923m248.9999997-412.2280923-237.9999997 412.2280923m248.9999997-412.2280923-237.9999997 412.2280923m248.9999997-412.2280923-237.9999997 412.2280923m248.9999997-412.2280923-237.9999997 412.2280923m248.9999997-412.2280923-237.9999997 412.2280923m248.9999997-412.2280923-237.9999997 412.2280923m248.9999997-412.2280923-237.9999997 412.2280923m249-412.2280923-238 412.2280923m249-412.2280923-238 412.2280923m249-412.2280923-238 412.2280923m249-412.2280923-238.0000003 412.2280923m249.0000003-412.2280923-238.0000003 412.2280923m249.0000003-412.2280923-238.0000003 412.2280923m249.0000003-412.2280923-238.0000003 412.2280923m249.0000003-412.2280923-238.0000003 412.2280923m249.0000003-412.2280923-238.0000003 412.2280923m249.0000003-412.2280923-238.0000003 412.2280923m249.0000003-412.2280923-238.0000003 412.2280923m249.0000003-412.2280923-238.0000003 412.2280923m249.0000003-412.2280923-238.0000003 412.2280923m249.0000003-412.2280923-238.0000003 412.2280923m249.0000003-412.2280923-238.0000003 412.2280923m249.0000003-412.2280923-238.0000003 412.2280923m249.0000003-412.2280923-238.0000003 412.2280923m249.0000003-412.2280923-238.0000003 412.2280923m249.0000003-412.2280923-238.0000003 412.2280923m249.0000003-412.2280923-238.0000003 412.2280923m249.0000003-412.2280923-238.0000003 412.2280923m249.0000003-412.2280923-238 412.2280923m249-412.2280923-238 412.2280923m249-412.2280923-238 412.2280923m249-412.2280923-238 412.2280923m249-412.2280923-238 412.2280923m249-412.2280923-238 412.2280923m249-412.2280923-238 412.2280923m249-412.2280923-238 412.2280923m249-412.2280923-238 412.2280923m249-412.2280923-238 412.2280923m249-412.2280923-238 412.2280923m249-412.2280923-238 412.2280923m249-412.2280923-238 412.2280923m249-412.2280923-238 412.2280923m249-412.2280923-238 412.2280923m249-412.2280923-238 412.2280923m249-412.2280923-238 412.2280923m249-412.2280923-238 412.2280923m249-412.2280923-238 412.2280923m249-412.2280923-238 412.2280923m249-412.2280923-238 412.2280923m249-412.2280923-238 412.2280923m249-412.2280923-238 412.2280923m249-412.2280923-238 412.2280923m249-412.2280923-238 412.2280923m249-412.2280923-238 412.2280923m249-412.2280923-238 412.2280923m249-412.2280923-238 412.2280923m249-412.2280923-238 412.2280923m249-412.2280923-238 412.2280923m249-412.2280923-238 412.2280923m249-412.2280923-238 412.2280923m249-412.2280923-238 412.2280923m249-412.2280923-238 412.2280923m249-412.2280923-238 412.2280923m249-412.2280923-238 412.2280923m249-412.2280923-238 412.2280923m249-412.2280923-238 412.2280923m249-412.2280923-238 412.2280923m249-412.2280923-238 412.2280923m249-412.2280923-238 412.2280923m249-412.2280923-238 412.2280923m249-412.2280923-238 412.2280923m249-412.2280923-238 412.2280923m249-412.2280923-238 412.2280923m249-412.2280923-238 412.2280923m249-412.2280923-238 412.2280923m249-412.2280923-238 412.2280923m249-412.2280923-238 412.2280923m249-412.2280923-238 412.2280923m249-412.2280923-238 412.2280923m249-412.2280923-238 412.2280923m249-412.2280923-238 412.2280923m249-412.2280923-238 412.2280923m249-412.2280923-238 412.2280923m249-412.2280923-238 412.2280923m249-412.2280923-238 412.2280923m249-412.2280923-238 412.2280923m249-412.2280923-238 412.2280923m249-412.2280923-238 412.2280923m249-412.2280923-238 412.2280923m248.999997-412.2280923-237.999997 412.2280923m248.999997-412.2280923-237.999997 412.2280923m248.999997-412.2280923-237.999997 412.2280923m248.999997-412.2280923-237.999997 412.2280923m248.999997-412.2280923-237.999997 412.2280923m248.999997-412.2280923-237.999997 412.2280923m248.999997-412.2280923-237.999997 412.2280923m248.999997-412.2280923-237.999997 412.2280923m248.999997-412.2280923-237.999997 412.2280923m248.999997-412.2280923-237.999997 412.2280923m248.999997-412.2280923-237.999997 412.2280923m248.999997-412.2280923-237.999997 412.2280923m248.999997-412.2280923-237.999997 412.2280923m248.999997-412.2280923-237.999997 412.2280923m248.999997-412.2280923-237.999997 412.2280923m248.999997-412.2280923-237.999997 412.2280923m248.999997-412.2280923-237.999997 412.2280923m248.999997-412.2280923-237.999997 412.2280923m248.999997-412.2280923-237.999997 412.2280923m248.999997-412.2280923-237.999997 412.2280923m248.999997-412.2280923-237.999997 412.2280923m248.999997-412.2280923-238 412.2280923m249-412.2280923-238 412.2280923m249-412.2280923-238 412.2280923m249-412.2280923-238 412.2280923m249-412.2280923-238 412.2280923m249-412.2280923-238 412.2280923m249-412.2280923-238 412.2280923m249-412.2280923-238 412.2280923m249-412.2280923-238 412.2280923m249-412.2280923-238 412.2280923m249-412.2280923-238 412.2280923m249-412.2280923-238 412.2280923m249-412.2280923-238 412.2280923m249-412.2280923-238 412.2280923m249-412.2280923-238 412.2280923m249-412.2280923-238 412.2280923m249-412.2280923-238 412.2280923m249-412.2280923-238 412.2280923m249-412.2280923-238 412.2280923m249-412.2280923-238 412.2280923m249-412.2280923-238 412.2280923m249-412.2280923-238 412.2280923m249-412.2280923-238 412.2280923m249-412.2280923-238 412.2280923m249-412.2280923-238 412.2280923m249-412.2280923-238 412.2280923m249-412.2280923-238 412.2280923m249-412.2280923-238 412.2280923m249-412.2280923-238 412.2280923m249-412.2280923-238 412.2280923m249-412.2280923-238 412.2280923m249-412.2280923-238 412.2280923m249-412.2280923-238 412.2280923m249-412.2280923-238 412.2280923m249-412.2280923-238 412.2280923m249-412.2280923-238 412.2280923m249-412.2280923-238 412.2280923m249-412.2280923-238 412.2280923m249-412.2280923-238 412.2280923m249-412.2280923-238 412.2280923m249-412.2280923-238 412.2280923m249-412.2280923-238 412.2280923m249-412.2280923-238 412.2280923m249-412.2280923-238 412.2280923m249-412.2280923-238 412.2280923m249-412.2280923-238 412.2280923m249-412.2280923-238 412.2280923m249-412.2280923-238 412.2280923m249-412.2280923-238 412.2280923m249-412.2280923-238 412.2280923m249-412.2280923-238 412.2280923m249-412.2280923-238 412.2280923m249-412.2280923-238 412.2280923" fill="none" opacity=".35" stroke="url(#a)" stroke-linecap="square"/></svg>
