<svg version="1.1" id="texture-go-tablet" xmlns="http://www.w3.org/2000/svg" xmlns:xlink="http://www.w3.org/1999/xlink" x="0px"
	 y="0px" viewBox="0 0 250.5 174.7" style="enable-background:new 0 0 250.5 174.7;" xml:space="preserve">
<style type="text/css">
	.st0{fill:#E6E6E6;}
</style>
<path class="st0" d="M77.4,11.6C69.4,4.1,58.1,0,45.7,0C33.3,0,21.9,4.3,13.5,12.1
	C4.7,20.3,0,31.5,0,44.5v86.6c0,13,4.5,24,13,32c8.1,7.5,19.3,11.6,31.7,11.6c12.4,0,23.8-4.3,32.2-12.1
	c8.8-8.2,13.5-19.4,13.5-32.4v-52H44.5v29.1h9.6v24.1c0,5.8-3.2,9.4-8.4,9.4c-5.1,0-8.2-3.5-8.2-9.4V44c0-5.6,2.9-8.9,7.7-8.9
	s7.7,3.3,7.7,8.9v21.2h37.5V43.5C90.5,30.6,85.9,19.5,77.4,11.6z M36.1,44v87.4c0,6.7,3.7,10.8,9.6,10.8c6,0,9.8-4.2,9.8-10.8v-25.5
	h-9.6V79.6H89v50.6c0,25-18.6,43.1-44.3,43.1c-12,0-23-4-30.8-11.2c-8.2-7.6-12.6-18.3-12.6-30.9V44.5c0-25,18.6-43.1,44.3-43.1
	c12,0,23,4,30.8,11.2C84.7,20.3,89,31,89,43.5v20.2H54.4V44c0-6.5-3.4-10.3-9.1-10.3C39.5,33.7,36.1,37.6,36.1,44z M229.3,132.4
	c-11.7,0-21.2,9.5-21.2,21.2s9.5,21.2,21.2,21.2s21.2-9.5,21.2-21.2S241,132.4,229.3,132.4z M249.1,153.5c0,10.9-8.9,19.8-19.8,19.8
	s-19.8-8.9-19.8-19.8s8.9-19.8,19.8-19.8S249.1,142.6,249.1,153.5z M148.7,33.7c-5.7,0-9.1,3.9-9.1,10.3v86.6
	c0,6.5,3.4,10.3,9.1,10.3c5.7,0,9.1-3.9,9.1-10.3V44C157.8,37.6,154.4,33.7,148.7,33.7z M156.4,44v86.6c0,5.6-2.9,8.9-7.7,8.9
	c-4.8,0-7.7-3.3-7.7-8.9V44c0-5.6,2.9-8.9,7.7-8.9C153.6,35.1,156.4,38.4,156.4,44z M180.9,11.6C172.8,4.1,161.6,0,149.2,0
	c-12.4,0-23.8,4.3-32.2,12.1c-8.8,8.2-13.5,19.4-13.5,32.4v86.6c0,13,4.5,24,13,32c8.1,7.5,19.3,11.6,31.7,11.6
	c12.4,0,23.8-4.3,32.2-12.1c8.8-8.2,13.5-19.4,13.5-32.4V43.5C193.9,30.6,189.4,19.5,180.9,11.6z M192.5,43.5v86.6
	c0,25-18.6,43.1-44.3,43.1c-12,0-23-4-30.8-11.2c-8.2-7.6-12.6-18.3-12.6-30.9V44.5c0-25,18.6-43.1,44.3-43.1c12,0,23,4,30.8,11.2
	C188.2,20.3,192.5,31,192.5,43.5z"/>
</svg>
