<svg height="200" viewBox="0 0 320 200" width="320" xmlns="http://www.w3.org/2000/svg" xmlns:xlink="http://www.w3.org/1999/xlink"><linearGradient id="a" x1="50%" x2="50%" y1="98.663295%" y2="0%"><stop offset="0" stop-color="#D8DADE"/><stop offset="1" stop-color="#fff" stop-opacity="0"/></linearGradient><path d="m-13.306695.3633098-126.330761 219.2733802m132.16957768-219.2733802-126.33076068 219.2733802m132.16957736-219.2733802-126.33076036 219.2733802m132.16957703-219.2733802-126.33076103 219.2733802m132.1695777-219.2733802-126.3307607 219.2733802m132.1695774-219.2733802-126.3307604 219.2733802m132.1695771-219.2733802-126.3307611 219.2733802m132.1695777-219.2733802-126.3307608 219.2733802m132.1695775-219.2733802-126.3307608 219.2733802m132.1695775-219.2733802-126.3307608 219.2733802m132.1695775-219.2733802-126.3307609 219.2733802m132.1695775-219.2733802-126.3307608 219.2733802m132.1695775-219.2733802-126.3307608 219.2733802m132.1695775-219.2733802-126.3307608 219.2733802m132.1695775-219.2733802-126.3307608 219.2733802m132.1695775-219.2733802-126.3307609 219.2733802m132.1695775-219.2733802-126.3307608 219.2733802m132.1695775-219.2733802-126.3307608 219.2733802m132.1695775-219.2733802-126.3307608 219.2733802m132.1695775-219.2733802-126.3307609 219.2733802m132.169578-219.2733802-126.3307613 219.2733802m132.1695773-219.2733802-126.3307606 219.2733802m132.1695776-219.2733802-126.3307609 219.2733802m132.1695779-219.2733802-126.33076126 219.2733802m132.16957726-219.2733802-126.33076058 219.2733802m132.16957758-219.2733802-126.3307609 219.2733802m132.1695779-219.2733802-126.3307612 219.2733802m132.1695772-219.2733802-126.3307605 219.2733802m132.1695775-219.2733802-126.3307609 219.2733802m132.1695779-219.2733802-126.3307612 219.2733802m132.1695772-219.2733802-126.3307605 219.2733802m132.1695775-219.2733802-126.3307608 219.2733802m132.1695778-219.2733802-126.3307612 219.2733802m132.1695772-219.2733802-126.3307605 219.2733802m132.1695775-219.2733802-126.3307608 219.2733802m132.1695778-219.2733802-126.3307611 219.2733802m132.1695771-219.2733802-126.3307605 219.2733802m132.1695775-219.2733802-126.3307608 219.2733802m132.1695778-219.2733802-126.3307611 219.2733802m132.1695771-219.2733802-126.3307604 219.2733802m132.1695774-219.2733802-126.3307608 219.2733802m132.1695778-219.2733802-126.3307611 219.2733802m132.1695771-219.2733802-126.33076 219.2733802m132.169577-219.2733802-126.330761 219.2733802m132.169578-219.2733802-126.330761 219.2733802m132.169577-219.2733802-126.33076 219.2733802m132.169577-219.2733802-126.330761 219.2733802m132.169578-219.2733802-126.330761 219.2733802m132.169577-219.2733802-126.33076 219.2733802m132.169577-219.2733802-126.330761 219.2733802m132.169578-219.2733802-126.330761 219.2733802m132.169578-219.2733802-126.330761 219.2733802m132.169577-219.2733802-126.330761 219.2733802m132.169578-219.2733802-126.330761 219.2733802m132.169578-219.2733802-126.330761 219.2733802m132.169577-219.2733802-126.330761 219.2733802m132.169578-219.2733802-126.330761 219.2733802m132.169578-219.2733802-126.330761 219.2733802m132.169577-219.2733802-126.330761 219.2733802m132.169578-219.2733802-126.330761 219.2733802m132.169578-219.2733802-126.330761 219.2733802m132.169577-219.2733802-126.330761 219.2733802m132.169578-219.2733802-126.330761 219.2733802m132.169578-219.2733802-126.330761 219.2733802m132.169577-219.2733802-126.330761 219.2733802m132.169578-219.2733802-126.330761 219.2733802m132.169578-219.2733802-126.330761 219.2733802m132.169577-219.2733802-126.33076 219.2733802m132.169577-219.2733802-126.330761 219.2733802m132.169578-219.2733802-126.330761 219.2733802m132.169577-219.2733802-126.33076 219.2733802m132.169577-219.2733802-126.330761 219.2733802m132.169578-219.2733802-126.330761 219.2733802m132.169577-219.2733802-126.33076 219.2733802m132.169577-219.2733802-126.330761 219.2733802m132.169578-219.2733802-126.330761 219.2733802m132.169577-219.2733802-126.33076 219.2733802m132.169577-219.2733802-126.330761 219.2733802m132.169578-219.2733802-126.330761 219.2733802m132.169577-219.2733802-126.33076 219.2733802m132.169577-219.2733802-126.330761 219.2733802m132.169578-219.2733802-126.330761 219.2733802" fill="none" opacity=".5" stroke="url(#a)" stroke-linecap="square"/></svg>
