<svg version="1.1" xmlns="http://www.w3.org/2000/svg" xmlns:xlink="http://www.w3.org/1999/xlink" x="0px"
	 y="0px" viewBox="0 0 150.3 104.9" style="enable-background:new 0 0 150.3 104.9;" xml:space="preserve">
<style type="text/css">
	.st0{fill:#E6E6E6;stroke:#E6E6E6;stroke-width:0.3;stroke-miterlimit:10;}
</style>
<path class="st0" d="M46.5,7.1c-4.8-4.5-11.6-6.9-19-6.9c-7.4,0-14.3,2.6-19.3,7.2
	C2.9,12.3,0.2,19,0.2,26.8v51.9c0,7.8,2.7,14.4,7.8,19.1c4.8,4.5,11.6,6.9,19,6.9c7.4,0,14.3-2.6,19.3-7.2
	c5.3-4.9,8.1-11.6,8.1-19.4V47H26.8v17.4h5.8v14.4c0,3.5-1.9,5.6-5.1,5.6c-3.1,0-4.9-2.1-4.9-5.6V26.5c0-3.3,1.7-5.3,4.6-5.3
	s4.6,2,4.6,5.3v12.7h22.5v-13C54.3,18.4,51.6,11.8,46.5,7.1z M53.5,38.3H32.7V26.5c0-3.9-2-6.2-5.5-6.2c-3.4,0-5.5,2.3-5.5,6.2v52.3
	c0,4,2.2,6.5,5.8,6.5c3.6,0,5.9-2.5,5.9-6.5V63.6h-5.8V47.8h25.8v30.3c0,15-11.2,25.8-26.5,25.8c-7.2,0-13.7-2.4-18.4-6.7
	C3.6,92.6,1,86.2,1,78.7V26.8C1,11.8,12.1,1,27.5,1c7.2,0,13.7,2.4,18.4,6.7c4.9,4.6,7.5,11,7.5,18.5V38.3z M108.5,7.1
	c-4.8-4.5-11.6-6.9-19-6.9c-7.4,0-14.3,2.6-19.3,7.2c-5.3,4.9-8.1,11.6-8.1,19.4v51.9c0,7.8,2.7,14.4,7.8,19.1
	c4.8,4.5,11.6,6.9,19,6.9c7.4,0,14.3-2.6,19.3-7.2c5.3-4.9,8.1-11.6,8.1-19.4V26.2C116.3,18.4,113.6,11.8,108.5,7.1z M115.4,78.1
	c0,15-11.2,25.8-26.5,25.8c-7.2,0-13.7-2.4-18.4-6.7c-4.9-4.6-7.5-11-7.5-18.5V26.8C63,11.8,74.1,1,89.5,1c7.2,0,13.7,2.4,18.4,6.7
	c4.9,4.6,7.5,11,7.5,18.5V78.1z M137.5,79.4c-7,0-12.7,5.7-12.7,12.7s5.7,12.7,12.7,12.7c7,0,12.7-5.7,12.7-12.7
	S144.5,79.4,137.5,79.4z M137.5,103.9c-6.5,0-11.8-5.3-11.8-11.8s5.3-11.8,11.8-11.8c6.5,0,11.8,5.3,11.8,11.8
	S144,103.9,137.5,103.9z M89.2,20.3c-3.4,0-5.5,2.3-5.5,6.2v51.9c0,3.9,2,6.2,5.5,6.2c3.4,0,5.5-2.3,5.5-6.2V26.5
	C94.7,22.6,92.6,20.3,89.2,20.3z M93.8,78.4c0,3.3-1.7,5.3-4.6,5.3c-2.9,0-4.6-2-4.6-5.3V26.5c0-3.3,1.7-5.3,4.6-5.3
	c2.9,0,4.6,2,4.6,5.3V78.4z"/>
</svg>
