<svg version="1.1" xmlns="http://www.w3.org/2000/svg" xmlns:xlink="http://www.w3.org/1999/xlink" x="0px"
	 y="0px" viewBox="0 0 415.5 289.5" style="enable-background:new 0 0 415.5 289.5;" xml:space="preserve">
<style type="text/css">
	.st0{fill:#E6E6E6;}
</style>
<path class="st0" d="M380.8,289.5c-19.2,0-34.8-15.6-34.8-34.8s15.6-34.8,34.8-34.8
	s34.8,15.6,34.8,34.8S399.9,289.5,380.8,289.5z M380.8,221.5c-18.3,0-33.2,14.9-33.2,33.2s14.9,33.2,33.2,33.2s33.2-14.9,33.2-33.2
	S399.1,221.5,380.8,221.5z M246,289.5c-20.5,0-39.1-6.8-52.4-19.2C179.4,257.3,172,239,172,217.5v-144c0-21.5,7.7-40,22.3-53.6
	c13.8-12.9,32.7-20,53.2-20C268,0,286.7,6.8,300,19.1c14.1,13.1,21.5,31.3,21.5,52.8v144c0,21.5-7.7,40-22.3,53.6
	C285.3,282.4,266.4,289.5,246,289.5z M247.5,1.5c-42.9,0-74,30.3-74,72v144c0,21,7.3,38.9,21.1,51.7c13,12.1,31.3,18.8,51.4,18.8
	c42.9,0,74-30.3,74-72v-144c0-21-7.3-38.9-21.1-51.7C285.9,8.2,267.7,1.5,247.5,1.5z M74,289.5c-20.5,0-39.1-6.8-52.4-19.2
	C7.4,257.3,0,239,0,217.5v-144c0-21.5,7.7-40,22.3-53.6C36.2,7.1,55.1,0,75.6,0C96,0,114.7,6.8,128,19.1
	c14.1,13.1,21.5,31.3,21.5,52.8v35.6H88V72.8c0-9.5-5-15.2-13.2-15.2s-13.2,5.7-13.2,15.2v145.2c0,10,5.3,16,14.1,16
	c8.9,0,14.4-6.2,14.4-16v-40.4H74V130h75.5v85.9c0,21.5-7.7,40-22.3,53.6C113.3,282.4,94.4,289.5,74,289.5z M75.6,1.5
	c-42.9,0-74.1,30.3-74.1,72v144c0,21,7.3,38.9,21.1,51.7C35.6,281.3,53.8,288,74,288c42.9,0,74-30.3,74-72v-84.4H75.5V176h16v41.9
	c0,10.7-6.3,17.5-15.9,17.5c-9.6,0-15.6-6.7-15.6-17.5V72.8C60,62.3,65.5,56,74.8,56s14.8,6.3,14.8,16.8V106H148V71.9
	c0-21-7.3-38.9-21.1-51.7C113.9,8.2,95.7,1.5,75.6,1.5z M246.8,233.5c-9.2,0-14.8-6.3-14.8-16.8v-144c0-10.5,5.5-16.8,14.8-16.8
	s14.8,6.3,14.8,16.8v144C261.5,227.2,256,233.5,246.8,233.5z M246.8,57.5c-8.3,0-13.2,5.7-13.2,15.2v144c0,9.5,5,15.2,13.2,15.2
	s13.2-5.7,13.2-15.2v-144C260,63.2,255,57.5,246.8,57.5z"/>
</svg>
