<svg enable-background="new 0 0 1200 412" viewBox="0 0 1200 412" xmlns="http://www.w3.org/2000/svg" xmlns:xlink="http://www.w3.org/1999/xlink"><linearGradient id="a" gradientUnits="userSpaceOnUse" x1="600.0499" x2="600.0499" y1="413.6" y2="0"><stop offset="0" stop-color="#d8dbde"/><stop offset="1" stop-color="#fff" stop-opacity="0"/></linearGradient><path d="m1813.1.4-238 412.2-.2.4.9.5.2-.4 238-412.2.2-.4-.9-.5zm-11 0-238 412.2-.2.4.9.5.2-.4 238-412.2.2-.4-.9-.5zm-11 0-238 412.2-.2.4.9.5.2-.4 238-412.2.2-.4-.9-.5zm-11 0-238 412.2-.2.4.9.5.2-.4 238-412.2.2-.4-.9-.5zm-11 0-238 412.2-.2.4.9.5.2-.4 238-412.2.2-.4-.9-.5zm-11 0-238 412.2-.2.4.9.5.2-.4 238-412.2.2-.4-.9-.5zm-11 0-238 412.2-.2.4.9.5.2-.4 238-412.2.2-.4-.9-.5zm-11 0-238 412.2-.2.4.9.5.2-.4 238-412.2.2-.4-.9-.5zm-11 0-238 412.2-.2.4.9.5.2-.4 238-412.2.2-.4-.9-.5zm-11 0-238 412.2-.2.4.9.5.2-.4 238-412.2.2-.4-.9-.5zm-11 0-238 412.2-.2.4.9.5.2-.4 238-412.2.2-.4-.9-.5zm-11 0-238 412.2-.2.4.9.5.2-.4 238-412.2.2-.4-.9-.5zm-11 0-238 412.2-.2.4.9.5.2-.4 238-412.2.2-.4-.9-.5zm-11 0-238 412.2-.2.4.9.5.2-.4 238-412.2.2-.4-.9-.5zm-11 0-238 412.2-.2.4.9.5.2-.4 238-412.2.2-.4-.9-.5zm-11 0-238 412.2-.2.4.9.5.2-.4 238-412.2.2-.4-.9-.5zm-11 0-238 412.2-.2.4.9.5.2-.4 238-412.2.2-.4-.9-.5zm-11 0-238 412.2-.2.4.9.5.2-.4 238-412.2.2-.4-.9-.5zm-11 0-238 412.2-.2.4.9.5.2-.4 238-412.2.2-.4-.9-.5zm-11 0-238 412.2-.2.4.9.5.2-.4 238-412.2.2-.4-.9-.5zm-11 0-238 412.2-.2.4.9.5.2-.4 238-412.2.2-.4-.9-.5zm-11 0-238 412.2-.2.4.9.5.2-.4 238-412.2.2-.4-.9-.5zm-11 0-238 412.2-.2.4.9.5.2-.4 238-412.2.2-.4-.9-.5zm-11 0-238 412.2-.2.4.9.5.2-.4 238-412.2.2-.4-.9-.5zm-11 0-238 412.2-.2.4.9.5.2-.4 238-412.2.2-.4-.9-.5zm-11 0-238 412.2-.2.4.9.5.2-.4 238-412.2.2-.4-.9-.5zm-11 0-238 412.2-.2.4.9.5.2-.4 238-412.2.2-.4-.9-.5zm-11 0-238 412.2-.2.4.9.5.2-.4 238-412.2.2-.4-.9-.5zm-11 0-238 412.2-.2.4.9.5.2-.4 238-412.2.2-.4-.9-.5zm-11 0-238 412.2-.2.4.9.5.2-.4 238-412.2.2-.4-.9-.5zm-11 0-238 412.2-.2.4.9.5.2-.4 238-412.2.2-.4-.9-.5zm-11 0-238 412.2-.2.4.9.5.2-.4 238-412.2.2-.4-.9-.5zm-11 0-238 412.2-.2.4.9.5.2-.4 238-412.2.2-.4-.9-.5zm-11 0-238 412.2-.2.4.9.5.2-.4 238-412.2.2-.4-.9-.5zm-11 0-238 412.2-.2.4.9.5.2-.4 238-412.2.2-.4-.9-.5zm-11 0-238 412.2-.2.4.9.5.2-.4 238-412.2.2-.4-.9-.5zm-11 0-238 412.2-.2.4.9.5.2-.4 238-412.2.2-.4-.9-.5zm-11 0-238 412.2-.2.4.9.5.2-.4 238-412.2.2-.4-.9-.5zm-11 0-238 412.2-.2.4.9.5.2-.4 238-412.2.2-.4-.9-.5zm-11 0-238 412.2-.2.4.9.5.2-.4 238-412.2.2-.4-.9-.5zm-11 0-238 412.2-.2.4.9.5.2-.4 238-412.2.2-.4-.9-.5zm-11 0-238 412.2-.2.4.9.5.2-.4 238-412.2.2-.4-.9-.5zm-11 0-238 412.2-.2.4.9.5.2-.4 238-412.2.2-.4-.9-.5zm-11 0-238 412.2-.2.4.9.5.2-.4 238-412.2.2-.4-.9-.5zm-11 0-238 412.2-.2.4.9.5.2-.4 238-412.2.2-.4-.9-.5zm-11 0-238 412.2-.2.4.9.5.2-.4 238-412.2.2-.4-.9-.5zm-11 0-238 412.2-.2.4.9.5.2-.4 238-412.2.2-.4-.9-.5zm-11 0-238 412.2-.2.4.9.5.2-.4 238-412.2.2-.4-.9-.5zm-11 0-238 412.2-.2.4.9.5.2-.4 238-412.2.2-.4-.9-.5zm-11 0-238 412.2-.2.4.9.5.2-.4 238-412.2.2-.4-.9-.5zm-11 0-238 412.2-.2.4.9.5.2-.4 238-412.2.2-.4-.9-.5zm-11 0-238 412.2-.2.4.9.5.2-.4 238-412.2.2-.4-.9-.5zm-11 0-238 412.2-.2.4.9.5.2-.4 238-412.2.2-.4-.9-.5zm-11 0-238 412.2-.2.4.9.5.2-.4 238-412.2.2-.4-.9-.5zm-11 0-238 412.2-.2.4.9.5.2-.4 238-412.2.2-.4-.9-.5zm-11 0-238 412.2-.2.4.9.5.2-.4 238-412.2.2-.4-.9-.5zm-11 0-238 412.2-.2.4.9.5.2-.4 238-412.2.2-.4-.9-.5zm-11 0-238 412.2-.2.4.9.5.2-.4 238-412.2.2-.4-.9-.5zm-11 0-238 412.2-.2.4.9.5.2-.4 238-412.2.2-.4-.9-.5zm-11 0-238 412.2-.2.4.9.5.2-.4 238-412.2.2-.4-.9-.5zm-11 0-238 412.2-.2.4.9.5.2-.4 238-412.2.2-.4-.9-.5zm-11 0-238 412.2-.2.4.9.5.2-.4 238-412.2.2-.4-.9-.5zm-11 0-238 412.2-.2.4.9.5.2-.4 238-412.2.2-.4-.9-.5zm-11 0-238 412.2-.2.4.9.5.2-.4 238-412.2.2-.4-.9-.5zm-11 0-238 412.2-.2.4.9.5.2-.4 238-412.2.2-.4-.9-.5zm-11 0-238 412.2-.2.4.9.5.2-.4 238-412.2.2-.4-.9-.5zm-11 0-238 412.2-.2.4.9.5.2-.4 238-412.2.2-.4-.9-.5zm-11 0-238 412.2-.2.4.9.5.2-.4 238-412.2.2-.4-.9-.5zm-11 0-238 412.2-.2.4.9.5.2-.4 238-412.2.2-.4-.9-.5zm-11 0-238 412.2-.2.4.9.5.2-.4 238-412.2.2-.4-.9-.5zm-11 0-238 412.2-.2.4.9.5.2-.4 238-412.2.2-.4-.9-.5zm-11 0-238 412.2-.2.4.9.5.2-.4 238-412.2.2-.4-.9-.5zm-11 0-238 412.2-.2.4.9.5.2-.4 238-412.2.2-.4-.9-.5zm-11 0-238 412.2-.2.4.9.5.2-.4 238-412.2.2-.4-.9-.5zm-11 0-238 412.2-.2.4.9.5.2-.4 238-412.2.2-.4-.9-.5zm-11 0-238 412.2-.2.4.9.5.2-.4 238-412.2.2-.4-.9-.5zm-11 0-238 412.2-.2.4.9.5.2-.4 238-412.2.2-.4-.9-.5zm-11 0-238 412.2-.2.4.9.5.2-.4 238-412.2.2-.4-.9-.5zm-11 0-238 412.2-.2.4.9.5.2-.4 238-412.2.2-.4-.9-.5zm-11 0-238 412.2-.2.4.9.5.2-.4 238-412.2.2-.4-.9-.5zm-11 0-238 412.2-.2.4.9.5.2-.4 238-412.2.2-.4-.9-.5zm-11 0-238 412.2-.2.4.9.5.2-.4 238-412.2.2-.4-.9-.5zm-11 0-238 412.2-.2.4.9.5.2-.4 238-412.2.2-.4-.9-.5zm-11 0-238 412.2-.2.4.9.5.2-.4 238-412.2.2-.4-.9-.5zm-11 0-238 412.2-.2.4.9.5.2-.4 238-412.2.2-.4-.9-.5zm-11 0-238 412.2-.2.4.9.5.2-.4 238-412.2.2-.4-.9-.5zm-11 0-238 412.2-.2.4.9.5.2-.4 238-412.2.2-.4-.9-.5zm-11 0-238 412.2-.2.4.9.5.2-.4 238-412.2.2-.4-.9-.5zm-11 0-238 412.2-.2.4.9.5.2-.4 238-412.2.2-.4-.9-.5zm-11 0-238 412.2-.2.4.9.5.2-.4 238-412.2.2-.4-.9-.5zm-11 0-238 412.2-.2.4.9.5.2-.4 238-412.2.2-.4-.9-.5zm-11 0-238 412.2-.2.4.9.5.2-.4 238-412.2.2-.4-.9-.5zm-11 0-238 412.2-.2.4.9.5.2-.4 238-412.2.2-.4-.9-.5zm-11 0-238 412.2-.2.4.9.5.2-.4 238-412.2.2-.4-.9-.5zm-11 0-238 412.2-.2.4.9.5.2-.4 238-412.2.2-.4-.9-.5zm-11 0-238 412.2-.2.4.9.5.2-.4 238-412.2.2-.4-.9-.5zm-11 0-238 412.2-.2.4.9.5.2-.4 238-412.2.2-.4-.9-.5zm-11 0-238 412.2-.2.4.9.5.2-.4 238-412.2.2-.4-.9-.5zm-11 0-238 412.2-.2.4.9.5.2-.4 238-412.2.2-.4-.9-.5zm-11 0-238 412.2-.2.4.9.5.2-.4 238-412.2.2-.4-.9-.5zm-11 0-238 412.2-.2.4.9.5.2-.4 238-412.2.2-.4-.9-.5zm-11 0-238 412.2-.2.4.9.5.2-.4 238-412.2.2-.4-.9-.5zm-11 0-238 412.2-.2.4.9.5.2-.4 238-412.2.2-.4-.9-.5zm-11 0-238 412.2-.2.4.9.5.2-.4 238-412.2.2-.4-.9-.5zm-11 0-238 412.2-.2.4.9.5.2-.4 238-412.2.2-.4-.9-.5zm-11 0-238 412.2-.2.4.9.5.2-.4 238-412.2.2-.4-.9-.5zm-11 0-238 412.2-.2.4.9.5.2-.4 238-412.2.2-.4-.9-.5zm-11 0-238 412.2-.2.4.9.5.2-.4 238-412.2.2-.4-.9-.5zm-11 0-238 412.2-.2.4.9.5.2-.4 238-412.2.2-.4-.9-.5zm-11 0-238 412.2-.2.4.9.5.2-.4 238-412.2.2-.4-.9-.5zm-11 0-238 412.2-.2.4.9.5.2-.4 238-412.2.2-.4-.9-.5zm-11 0-238 412.2-.2.4.9.5.2-.4 238-412.2.2-.4-.9-.5zm-11 0-238 412.2-.2.4.9.5.2-.4 238-412.2.2-.4-.9-.5zm-11 0-238 412.2-.2.4.9.5.2-.4 238-412.2.2-.4-.9-.5zm-11 0-238 412.2-.2.4.9.5.2-.4 238-412.2.2-.4-.9-.5zm-11 0-238 412.2-.2.4.9.5.2-.4 238-412.2.2-.4-.9-.5zm-11 0-238 412.2-.2.4.9.5.2-.4 238-412.2.2-.4-.9-.5zm-11 0-238 412.2-.2.4.9.5.2-.4 238-412.2.2-.4-.9-.5zm-11 0-238 412.2-.2.4.9.5.2-.4 238-412.2.2-.4-.9-.5zm-11 0-238 412.2-.2.4.9.5.2-.4 238-412.2.2-.4-.9-.5zm-11 0-238 412.2-.2.4.9.5.2-.4 238-412.2.2-.4-.9-.5zm-11 0-238 412.2-.2.4.9.5.2-.4 238-412.2.2-.4-.9-.5zm-11 0-238 412.2-.2.4.9.5.2-.4 238-412.2.2-.4-.9-.5zm-11 0-238 412.2-.2.4.9.5.2-.4 238-412.2.2-.4-.9-.5zm-11 0-238 412.2-.2.4.9.5.2-.4 238-412.2.2-.4-.9-.5zm-11 0-238 412.2-.2.4.9.5.2-.4 238-412.2.2-.4-.9-.5zm-11 0-238 412.2-.2.4.9.5.2-.4 238-412.2.2-.4-.9-.5zm-11 0-238 412.2-.2.4.9.5.2-.4 238-412.2.2-.4-.9-.5zm-11 0-238 412.2-.2.4.9.5.2-.4 238-412.2.2-.4-.9-.5zm-11 0-238 412.2-.2.4.9.5.2-.4 238-412.2.2-.4-.9-.5zm-11 0-238 412.2-.2.4.9.5.2-.4 238-412.2.2-.4-.9-.5zm-11 0-238 412.2-.2.4.9.5.2-.4 238-412.2.2-.4-.9-.5zm-11 0-238 412.2-.2.4.9.5.2-.4 238-412.2.2-.4-.9-.5zm-11 0-238 412.2-.2.4.9.5.2-.4 238-412.2.2-.4-.9-.5zm-11 0-238 412.2-.2.4.9.5.2-.4 238-412.2.2-.4-.9-.5zm-11 0-238 412.2-.2.4.9.5.2-.4 238-412.2.2-.4-.9-.5zm-11 0-238 412.2-.2.4.9.5.2-.4 238-412.2.2-.4-.9-.5zm-11 0-238 412.2-.2.4.9.5.2-.4 238-412.2.2-.4-.9-.5zm-11 0-238 412.2-.2.4.9.5.2-.4 238-412.2.2-.4-.9-.5zm-11 0-238 412.2-.2.4.9.5.2-.4 238-412.2.2-.4-.9-.5zm-11 0-238 412.2-.2.4.9.5.2-.4 238-412.2.2-.4-.9-.5zm-11 0-238 412.2-.2.4.9.5.2-.4 238-412.2.2-.4-.9-.5zm-11 0-238 412.2-.2.4.9.5.2-.4 238-412.2.2-.4-.9-.5zm-11 0-238 412.3-.2.4.9.5.2-.4 238-412.2.2-.4-.9-.6zm-11 0-238 412.2-.2.4.9.5.2-.4 238-412.2.2-.4-.9-.5zm-11 0-238 412.2-.2.4.9.5.2-.4 238-412.2.2-.4-.9-.5zm-11 0-238 412.2-.2.4.9.5.2-.4 238-412.2.2-.4-.9-.5zm-11 0-238 412.2-.2.4.9.5.2-.4 238-412.2.2-.4-.9-.5zm-11 0-238 412.2-.2.4.9.5.2-.4 238-412.2.2-.4-.9-.5zm-11 0-238 412.2-.2.4.9.5.2-.4 238-412.2.2-.4-.9-.5zm-11 0-238 412.2-.2.4.9.5.2-.4 238-412.2.2-.4-.9-.5zm-11 0-238 412.2-.2.4.9.5.2-.4 238-412.2.2-.4-.9-.5zm-11 0-238 412.2-.2.4.9.5.2-.4 238-412.2.2-.4-.9-.5zm-11 0-238 412.2-.2.4.9.5.2-.4 238-412.2.2-.4-.9-.5zm-11 0-238 412.2-.2.4.9.5.2-.4 238-412.2.2-.4-.9-.5zm-11 0-238 412.2-.2.4.9.5.2-.4 238-412.2.2-.4-.9-.5zm-11 0-238 412.2-.2.4.9.5.2-.4 237.9-412.2.2-.4-.8-.5zm-11 0-238 412.2-.2.4.9.5.2-.4 237.9-412.2.2-.4-.8-.5zm-11 0-238 412.2-.2.4.9.5.2-.4 237.9-412.2.2-.4-.8-.5zm-11 0-238 412.2-.2.4.9.5.2-.4 237.9-412.2.2-.4-.8-.5zm-11 0-238 412.2-.2.4.9.5.2-.4 237.9-412.2.2-.4-.8-.5zm-11 0-238 412.2-.2.4.9.5.2-.4 237.9-412.2.2-.4-.8-.5zm-11 0-238 412.2-.2.4.9.5.2-.4 237.9-412.2.2-.4-.8-.5zm-11 0-238 412.2-.2.4.9.5.2-.4 237.9-412.2.2-.4-.8-.5zm-11 0-238 412.2-.2.4.9.5.2-.4 237.9-412.2.2-.4-.8-.5zm-11 0-238 412.2-.2.4.9.5.2-.4 237.9-412.2.2-.4-.8-.5zm-11 0-238 412.2-.2.4.9.5.2-.4 238-412.2.2-.4-.9-.5zm-11 0-238 412.2-.2.4.9.5.2-.4 238-412.2.2-.4-.9-.5zm-11 0-238 412.2-.2.4.9.5.2-.4 238-412.2.2-.4-.9-.5zm-11 0-238 412.2-.2.4.9.5.2-.4 238-412.2.2-.4-.9-.5zm-11 0-238 412.2-.2.4.9.5.2-.4 238-412.2.2-.4-.9-.5zm-11 0-238 412.2-.2.4.9.5.2-.4 238-412.2.2-.4-.9-.5zm-11 0-238 412.2-.2.4.9.5.2-.4 238-412.2.2-.4-.9-.5zm-11 0-238 412.2-.2.4.9.5.2-.4 238-412.2.2-.4-.9-.5zm-11 0-238 412.2-.2.4.9.5.2-.4 238-412.2.2-.4-.9-.5zm-11 0-238 412.2-.2.4.9.5.2-.4 238-412.2.2-.4-.9-.5zm-11 0-238 412.2-.2.4.9.5.2-.4 238-412.2.2-.4-.9-.5zm-11 0-238 412.2-.2.4.9.5.2-.4 238-412.2.2-.4-.9-.5zm-11 0-238 412.2-.2.4.9.5.2-.4 238-412.2.2-.4-.9-.5zm-11 0-238 412.2-.2.4.9.5.2-.4 238-412.2.2-.4-.9-.5zm-11 0-238 412.2-.2.4.9.5.2-.4 238-412.2.2-.4-.9-.5zm-11 0-238 412.2-.2.4.9.5.2-.4 238-412.2.2-.4-.9-.5zm-11 0-238 412.2-.2.4.9.5.2-.4 238-412.2.2-.4-.9-.5zm-11 0-238 412.2-.2.4.9.5.2-.4 238-412.2.2-.4-.9-.5zm-11 0-238 412.2-.2.4.9.5.2-.4 238-412.2.2-.4-.9-.5zm-11 0-238 412.2-.2.4.9.5.2-.4 238-412.2.2-.4-.9-.5zm-11 0-238 412.2-.2.4.9.5.2-.4 238-412.2.2-.4-.9-.5zm-11 0-238 412.2-.2.4.9.5.2-.4 238-412.2.2-.4-.9-.5zm-11 0-238 412.2-.2.4.9.5.2-.4 238-412.2.2-.4-.9-.5zm-11 0-238 412.2-.2.4.9.5.2-.4 238-412.2.2-.4-.9-.5zm-11 0-238 412.2-.2.4.9.5.2-.4 238-412.2.2-.4-.9-.5zm-11 0-238 412.2-.2.4.9.5.2-.4 238-412.2.2-.4-.9-.5zm-11 0-238 412.2-.2.4.9.5.2-.4 238-412.2.2-.4-.9-.5zm-11 0-238 412.2-.2.4.9.5.2-.4 238-412.2.2-.4-.9-.5zm-11 0-238 412.2-.2.4.9.5.2-.4 238-412.2.2-.4-.9-.5zm-11 0-238 412.2-.2.4.9.5.2-.4 238-412.2.2-.4-.9-.5zm-11 0-238 412.2-.2.4.9.5.2-.4 238-412.2.2-.4-.9-.5zm-11 0-238 412.2-.2.4.9.5.2-.4 238-412.2.2-.4-.9-.5zm-11 0-238 412.2-.2.4.9.5.2-.4 238-412.2.2-.4-.9-.5zm-11 0-238 412.2-.2.4.9.5.2-.4 238-412.2.2-.4-.9-.5z" fill="url(#a)"/></svg>
