<svg version="1.1" xmlns="http://www.w3.org/2000/svg" xmlns:xlink="http://www.w3.org/1999/xlink"
	 x="0px" y="0px" viewBox="0 0 500.5 174.3" style="enable-background:new 0 0 500.5 174.3;" xml:space="preserve">
<style type="text/css">
	.st0{fill:#F0F0F0;}
</style>
<path class="st0" d="M87.8,0C63.5,0,41.2,9.2,25,25.8C8.9,42.2,0,64.5,0,88.6
	c0,23.6,8.6,45.3,24.3,61c15.9,15.9,38.2,24.7,62.7,24.7c10.4,0,13.7-1.5,14.3-1.7l0,0l0.5-0.2l-3.5-19.8l-0.8,0.2c0,0,0,0-0.1,0
	c-1.1,0.2-4.4,0.8-10.1,0.8c-36.9,0-64.8-28.1-64.8-65.4c0-18,6.6-34.8,18.4-47.1c12-12.4,28.5-19.3,46.4-19.3
	c39.3,0,64.8,26.8,64.9,68.2c0,11.3-3.1,21.7-8.7,29.3c-5.2,7-12.2,11-19.3,11c-3.9,0-7-1.3-9.1-3.7c-2.7-3.1-3.7-8.1-2.7-14.5
	l8.9-63.5l0-0.1l-1.8-3H99.2l-1.5,5.7c-3.2-4.7-8.6-7.3-15.3-7.3c-13,0-22,8.5-24,22.7L52.7,106c-1,7.2,0.4,13.3,4.2,17.7
	c3.5,4.1,8.8,6.3,15.4,6.3c6.6,0,12-2.2,16-6.4c1.8,17.7,14.5,28.2,34.2,28.2c30.3,0,52.4-27,52.4-64.1c0-24.1-8.7-46.3-24.5-62.4
	C134.2,9,112,0,87.8,0z M118.7,47l1,1.8l-8.9,63.1c-1,6.8,0.1,12.2,3.1,15.7c2.4,2.7,5.9,4.2,10.2,4.2c7.5,0,15-4.3,20.5-11.7
	c5.8-7.8,9-18.5,9-30.1c0-20.9-6.3-38.5-18.3-51c-11.9-12.3-28.5-18.8-48-18.8c-18.3,0-35.1,7-47.4,19.8C27.8,52.6,21,69.7,21,88.2
	c0,38.2,28.5,66.9,66.3,66.9c3.8,0,7-0.2,9.7-0.7l3,17c-1.8,0.5-5.7,1.3-13.1,1.3c-24.1,0-46-8.6-61.6-24.3
	C10,133.1,1.5,111.8,1.5,88.6c0-23.7,8.7-45.6,24.6-61.7C42.1,10.5,64,1.5,87.8,1.5c23.9,0,45.7,8.8,61.4,24.9
	c15.5,15.8,24.1,37.6,24.1,61.4c0,36.3-21.4,62.6-50.8,62.6c-19.5,0-31.8-10.7-32.8-28.7l-0.2-2l-1.2,1.6c-3.8,4.8-9.2,7.2-16,7.2
	c-6.1,0-11-2-14.2-5.7c-3.5-4-4.8-9.7-3.8-16.5l5.7-39.5c1.9-13.4,10.3-21.4,22.5-21.4c6.9,0,12.2,2.9,14.9,8.1l0.9,1.7l2.2-8.2
	H118.7z M88.6,64.1c-3.5,0-5.7,2.1-6.4,5.9l-4.7,33.2c-0.2,2.1,0.2,3.7,1.3,4.9c1,1.1,2.3,1.7,3.9,1.7c3.5,0,5.7-2.1,6.4-5.9
	l4.7-33.2c0.2-2.1-0.2-3.7-1.3-4.9C91.5,64.7,90.2,64.1,88.6,64.1z M92.3,70.5l-4.7,33.2c-0.5,3.1-2.2,4.6-4.9,4.6
	c-1.2,0-2.1-0.4-2.8-1.1c-0.8-0.9-1.1-2.2-0.9-3.7l4.7-33.2c0.5-3.1,2.2-4.6,4.9-4.6c1.2,0,2.1,0.4,2.8,1.1
	C92.1,67.7,92.5,69,92.3,70.5z M220.9,2h-35.6v143.2h31.9V97.6h2.9c12.6,0,22.5-3.3,29.6-9.8C257,81,260.7,71,260.7,58V40.8
	C260.7,15.4,247,2,220.9,2z M215.7,96.1v47.6h-28.8V3.5h34c25.1,0,38.3,12.9,38.3,37.3V58c0,12.5-3.6,22.1-10.6,28.7
	c-6.7,6.3-16.3,9.4-28.5,9.4H215.7z M298.7,97.6h12.5l-6.4-47.4L298.7,97.6z M309.5,96.1h-9l4.4-34.3L309.5,96.1z M471.2,113.3V87.1
	h22.3V57.3h-22.3V33.9h28.3V2h-60.2v143.2h61.2v-31.9H471.2z M499,114.8v28.8h-58.2V3.5H498v28.8h-28.3v26.4h22.3v26.8h-22.3v29.2
	H499z M290.7,2l-27.6,142.9l-0.1,0.3H294l3-23.3h15.8l3,23.3h32.9L321.3,2H290.7z M317.3,143.7l-3-23.3h-18.5l-3,23.3H265L292,3.5
	h28.1l27,140.1H317.3z M390.9,0c-10.2,0-19.6,3.5-26.4,9.9c-7.3,6.7-11.2,16-11.2,26.6v74.9c0,21.1,15.1,35.8,36.8,35.8
	c9.9,0,19-3.4,25.7-9.6c7-6.5,10.9-15.7,10.9-25.9V88h-30.9v23c0,4.1-1.9,6.3-5.3,6.3s-5.3-2.2-5.3-6.3V36.2c0-4.1,1.9-6.3,5.3-6.3
	s5.3,2.2,5.3,6.3v21h30.9V34.8C426.6,14.3,411.9,0,390.9,0z M390.5,28.3c-4.3,0-6.8,2.9-6.8,7.8V111c0,4.9,2.6,7.8,6.8,7.8
	s6.8-2.9,6.8-7.8V89.5h27.8v22.1c0,9.9-3.6,18.5-10.4,24.8c-6.4,6-15.2,9.2-24.7,9.2c-9.8,0-18.7-3.2-25-9.1
	c-6.7-6.2-10.2-14.9-10.2-25.2V36.6c0-10.3,3.7-19.1,10.6-25.6c6.6-6.1,15.7-9.5,25.4-9.5c9.5,0,18.1,3.1,24.3,8.8
	c6.5,6,10,14.5,10,24.4v20.9h-27.8V36.2C397.3,31.3,394.8,28.3,390.5,28.3z M230.4,59.4V41.2c0-7.1-3.4-10.9-9.9-10.9h-4.8v40h4.8
	C227,70.3,230.4,66.5,230.4,59.4z M217.2,68.8V31.9h3.3c5.6,0,8.3,3.1,8.3,9.4v18.2c0,6.3-2.7,9.4-8.3,9.4H217.2z"/>
</svg>
